<svg xmlns="http://www.w3.org/2000/svg" xmlns:xlink="http://www.w3.org/1999/xlink" contentStyleType="text/css" data-diagram-type="DESCRIPTION" height="1961px" preserveAspectRatio="none" style="width:1179px;height:1961px;background:#FFFFFF;" version="1.1" viewBox="0 0 1179 1961" width="1179px" zoomAndPan="magnify"><?plantuml $version$?><defs/><g><g class="title" data-source-line="27"><text fill="#000000" font-family="'Liberation Sans'" font-size="26" font-weight="700" lengthAdjust="spacing" textLength="411.709" x="380.5228" y="34.3877">FactStamp - Component Diagram</text></g><!--cluster CLIENT--><g class="cluster" data-qualified-name="CLIENT" data-source-line="36" id="ent0001"><polygon fill="none" points="16,57.8477,537.7202,57.8477,544.7202,87.9956,860,87.9956,860,1393.7977,16,1393.7977,16,57.8477" style="stroke:#000000;stroke-width:2.5;stroke-linejoin:miter;stroke-miterlimit:10;"/><line style="stroke:#000000;stroke-width:2.5;" x1="16" x2="544.7202" y1="87.9956" y2="87.9956"/><text fill="#000000" font-family="'Liberation Sans'" font-size="21" font-weight="700" lengthAdjust="spacing" textLength="515.7202" x="20" y="79.5454">Client Tier :: Web Browser (single-page application)</text></g><!--cluster CLOUD--><g class="cluster" data-qualified-name="CLOUD" data-source-line="62" id="ent0016"><polygon fill="none" points="75,1579.7977,588.6709,1579.7977,595.6709,1609.9456,803,1609.9456,803,1946.7877,75,1946.7877,75,1579.7977" style="stroke:#000000;stroke-width:2.5;stroke-linejoin:miter;stroke-miterlimit:10;"/><line style="stroke:#000000;stroke-width:2.5;" x1="75" x2="595.6709" y1="1609.9456" y2="1609.9456"/><text fill="#000000" font-family="'Liberation Sans'" font-size="21" font-weight="700" lengthAdjust="spacing" textLength="507.6709" x="79" y="1601.4954">Server Tier :: Google Cloud (Backend as a Service)</text></g><!--entity SHELL--><g class="entity" data-qualified-name="CLIENT.SHELL" data-source-line="38" id="ent0002"><rect fill="#F8F8F8" height="98.9941" rx="2.5" ry="2.5" style="stroke:#000000;stroke-width:2.5;" width="368.9551" x="475.52" y="112.3477"/><rect fill="#F8F8F8" height="10" style="stroke:#000000;stroke-width:2.5;" width="15" x="824.4751" y="117.3477"/><rect fill="#F8F8F8" height="2" style="stroke:#000000;stroke-width:2.5;" width="4" x="822.4751" y="119.3477"/><rect fill="#F8F8F8" height="2" style="stroke:#000000;stroke-width:2.5;" width="4" x="822.4751" y="123.3477"/><text fill="#000000" font-family="'Liberation Sans'" font-size="20" font-weight="700" lengthAdjust="spacing" textLength="203.3398" x="490.52" y="151.1074">App Shell and Router</text><text fill="#000000" font-family="'Liberation Sans'" font-size="20" font-weight="700" lengthAdjust="spacing" textLength="316.25" x="490.52" y="174.1055">&#171;React 18 + react-router-dom v6&#187;</text><text fill="#000000" font-family="'Liberation Sans'" font-size="20" font-weight="700" lengthAdjust="spacing" textLength="328.9551" x="490.52" y="197.1035">lazy-loaded routes, ErrorBoundary</text></g><!--entity VIEWS--><g class="entity" data-qualified-name="CLIENT.VIEWS" data-source-line="40" id="ent0003"><rect fill="#F8F8F8" height="121.9922" rx="2.5" ry="2.5" style="stroke:#000000;stroke-width:2.5;" width="363.4277" x="169.29" y="289.8377"/><rect fill="#F8F8F8" height="10" style="stroke:#000000;stroke-width:2.5;" width="15" x="512.7177" y="294.8377"/><rect fill="#F8F8F8" height="2" style="stroke:#000000;stroke-width:2.5;" width="4" x="510.7177" y="296.8377"/><rect fill="#F8F8F8" height="2" style="stroke:#000000;stroke-width:2.5;" width="4" x="510.7177" y="300.8377"/><text fill="#000000" font-family="'Liberation Sans'" font-size="20" font-weight="700" lengthAdjust="spacing" textLength="110.0586" x="184.29" y="328.5974">Page Views</text><text fill="#000000" font-family="'Liberation Sans'" font-size="20" font-weight="700" lengthAdjust="spacing" textLength="172.3047" x="184.29" y="351.5955">&#171;11 routed views&#187;</text><text fill="#000000" font-family="'Liberation Sans'" font-size="20" font-weight="700" lengthAdjust="spacing" textLength="323.4277" x="184.29" y="374.5935">Submit, VerifyQueue, VerifyDetail,</text><text fill="#000000" font-family="'Liberation Sans'" font-size="20" font-weight="700" lengthAdjust="spacing" textLength="297.832" x="184.29" y="397.5916">ClaimDetail, Dashboard, Admin</text></g><!--entity UIKIT--><g class="entity" data-qualified-name="CLIENT.UIKIT" data-source-line="41" id="ent0004"><rect fill="#F8F8F8" height="121.9922" rx="2.5" ry="2.5" style="stroke:#000000;stroke-width:2.5;" width="293.4082" x="142.3" y="100.8477"/><rect fill="#F8F8F8" height="10" style="stroke:#000000;stroke-width:2.5;" width="15" x="415.7082" y="105.8477"/><rect fill="#F8F8F8" height="2" style="stroke:#000000;stroke-width:2.5;" width="4" x="413.7082" y="107.8477"/><rect fill="#F8F8F8" height="2" style="stroke:#000000;stroke-width:2.5;" width="4" x="413.7082" y="111.8477"/><text fill="#000000" font-family="'Liberation Sans'" font-size="20" font-weight="700" lengthAdjust="spacing" textLength="183.3984" x="157.3" y="139.6074">UI Primitive Library</text><text fill="#000000" font-family="'Liberation Sans'" font-size="20" font-weight="700" lengthAdjust="spacing" textLength="245.625" x="157.3" y="162.6055">&#171;18 custom components&#187;</text><text fill="#000000" font-family="'Liberation Sans'" font-size="20" font-weight="700" lengthAdjust="spacing" textLength="247.7832" x="157.3" y="185.6035">Button, Modal, VerdictPill,</text><text fill="#000000" font-family="'Liberation Sans'" font-size="20" font-weight="700" lengthAdjust="spacing" textLength="253.4082" x="157.3" y="208.6016">CategoryBadge, Skeletons</text></g><!--entity I_STATE--><g class="entity" data-qualified-name="CLIENT.I_STATE" data-source-line="43" id="ent0005"><ellipse cx="479" cy="511.8377" fill="#F1F1F1" rx="8" ry="8" style="stroke:#181818;stroke-width:2.5;"/><text fill="#000000" font-family="'Liberation Sans'" font-size="18" lengthAdjust="spacing" textLength="79.0576" x="439.4712" y="545.7214">IAppState</text></g><!--entity CTX--><g class="entity" data-qualified-name="CLIENT.CTX" data-source-line="44" id="ent0006"><rect fill="#F8F8F8" height="121.9922" rx="2.5" ry="2.5" style="stroke:#000000;stroke-width:2.5;" width="260.0684" x="391.97" y="689.8277"/><rect fill="#F8F8F8" height="10" style="stroke:#000000;stroke-width:2.5;" width="15" x="632.0384" y="694.8277"/><rect fill="#F8F8F8" height="2" style="stroke:#000000;stroke-width:2.5;" width="4" x="630.0384" y="696.8277"/><rect fill="#F8F8F8" height="2" style="stroke:#000000;stroke-width:2.5;" width="4" x="630.0384" y="700.8277"/><text fill="#000000" font-family="'Liberation Sans'" font-size="20" font-weight="700" lengthAdjust="spacing" textLength="220.0684" x="406.97" y="728.5874">Context Provider Layer</text><text fill="#000000" font-family="'Liberation Sans'" font-size="20" font-weight="700" lengthAdjust="spacing" textLength="156.7188" x="406.97" y="751.5855">&#171;React Context&#187;</text><text fill="#000000" font-family="'Liberation Sans'" font-size="20" font-weight="700" lengthAdjust="spacing" textLength="194.502" x="406.97" y="774.5835">Auth, Claims, Users,</text><text fill="#000000" font-family="'Liberation Sans'" font-size="20" font-weight="700" lengthAdjust="spacing" textLength="196.6895" x="406.97" y="797.5816">Notifications, Theme</text></g><!--entity I_OCR--><g class="entity" data-qualified-name="CLIENT.I_OCR" data-source-line="46" id="ent0007"><ellipse cx="752" cy="867.8177" fill="#F1F1F1" rx="8" ry="8" style="stroke:#181818;stroke-width:2.5;"/><text fill="#000000" font-family="'Liberation Sans'" font-size="18" lengthAdjust="spacing" textLength="114.0293" x="694.9854" y="901.7014">IOcrExtraction</text></g><!--entity I_REPO--><g class="entity" data-qualified-name="CLIENT.I_REPO" data-source-line="47" id="ent0008"><ellipse cx="616" cy="973.3177" fill="#F1F1F1" rx="8" ry="8" style="stroke:#181818;stroke-width:2.5;"/><text fill="#000000" font-family="'Liberation Sans'" font-size="18" lengthAdjust="spacing" textLength="137.0391" x="547.4805" y="1007.2014">IClaimRepository</text></g><!--entity OCR--><g class="entity" data-qualified-name="CLIENT.OCR" data-source-line="49" id="ent0009"><rect fill="#F8F8F8" height="121.9922" rx="2.5" ry="2.5" style="stroke:#000000;stroke-width:2.5;" width="312.3438" x="531.83" y="1089.8177"/><rect fill="#F8F8F8" height="10" style="stroke:#000000;stroke-width:2.5;" width="15" x="824.1738" y="1094.8177"/><rect fill="#F8F8F8" height="2" style="stroke:#000000;stroke-width:2.5;" width="4" x="822.1738" y="1096.8177"/><rect fill="#F8F8F8" height="2" style="stroke:#000000;stroke-width:2.5;" width="4" x="822.1738" y="1100.8177"/><text fill="#000000" font-family="'Liberation Sans'" font-size="20" font-weight="700" lengthAdjust="spacing" textLength="102.2949" x="546.83" y="1128.5774">ocrService</text><text fill="#000000" font-family="'Liberation Sans'" font-size="20" font-weight="700" lengthAdjust="spacing" textLength="272.3438" x="546.83" y="1151.5755">&#171;tesseract.js WASM worker&#187;</text><text fill="#000000" font-family="'Liberation Sans'" font-size="20" font-weight="700" lengthAdjust="spacing" textLength="233.3984" x="546.83" y="1174.5735">extractTextFromImage(),</text><text fill="#000000" font-family="'Liberation Sans'" font-size="20" font-weight="700" lengthAdjust="spacing" textLength="213.3789" x="546.83" y="1197.5716">detectClaimCategory()</text></g><!--entity FSVC--><g class="entity" data-qualified-name="CLIENT.FSVC" data-source-line="50" id="ent0010"><rect fill="#F8F8F8" height="121.9922" rx="2.5" ry="2.5" style="stroke:#000000;stroke-width:2.5;" width="260.0586" x="231.97" y="1089.8177"/><rect fill="#F8F8F8" height="10" style="stroke:#000000;stroke-width:2.5;" width="15" x="472.0286" y="1094.8177"/><rect fill="#F8F8F8" height="2" style="stroke:#000000;stroke-width:2.5;" width="4" x="470.0286" y="1096.8177"/><rect fill="#F8F8F8" height="2" style="stroke:#000000;stroke-width:2.5;" width="4" x="470.0286" y="1100.8177"/><text fill="#000000" font-family="'Liberation Sans'" font-size="20" font-weight="700" lengthAdjust="spacing" textLength="147.8809" x="246.97" y="1128.5774">firebaseService</text><text fill="#000000" font-family="'Liberation Sans'" font-size="20" font-weight="700" lengthAdjust="spacing" textLength="135.6641" x="246.97" y="1151.5755">&#171;data access&#187;</text><text fill="#000000" font-family="'Liberation Sans'" font-size="20" font-weight="700" lengthAdjust="spacing" textLength="196.1133" x="246.97" y="1174.5735">CRUD + onSnapshot</text><text fill="#000000" font-family="'Liberation Sans'" font-size="20" font-weight="700" lengthAdjust="spacing" textLength="220.0586" x="246.97" y="1197.5716">real-time subscriptions</text></g><!--entity DOMAIN--><g class="entity" data-qualified-name="CLIENT.DOMAIN" data-source-line="52" id="ent0011"><rect fill="#F8F8F8" height="98.9941" rx="2.5" ry="2.5" style="stroke:#000000;stroke-width:2.5;" width="467.9102" x="32.04" y="923.8177"/><rect fill="#F8F8F8" height="10" style="stroke:#000000;stroke-width:2.5;" width="15" x="479.9502" y="928.8177"/><rect fill="#F8F8F8" height="2" style="stroke:#000000;stroke-width:2.5;" width="4" x="477.9502" y="930.8177"/><rect fill="#F8F8F8" height="2" style="stroke:#000000;stroke-width:2.5;" width="4" x="477.9502" y="934.8177"/><text fill="#000000" font-family="'Liberation Sans'" font-size="20" font-weight="700" lengthAdjust="spacing" textLength="261.1035" x="47.04" y="962.5774">Domain Logic Modules (lib)</text><text fill="#000000" font-family="'Liberation Sans'" font-size="20" font-weight="700" lengthAdjust="spacing" textLength="357.8516" x="47.04" y="985.5755">duplicateDetection - confidenceScore</text><text fill="#000000" font-family="'Liberation Sans'" font-size="20" font-weight="700" lengthAdjust="spacing" textLength="427.9102" x="47.04" y="1008.5735">security - weeklyReport - imageCompression</text></g><!--entity CARD--><g class="entity" data-qualified-name="CLIENT.CARD" data-source-line="54" id="ent0012"><rect fill="#F8F8F8" height="98.9941" rx="2.5" ry="2.5" style="stroke:#000000;stroke-width:2.5;" width="260.0488" x="45.98" y="567.8377"/><rect fill="#F8F8F8" height="10" style="stroke:#000000;stroke-width:2.5;" width="15" x="286.0288" y="572.8377"/><rect fill="#F8F8F8" height="2" style="stroke:#000000;stroke-width:2.5;" width="4" x="284.0288" y="574.8377"/><rect fill="#F8F8F8" height="2" style="stroke:#000000;stroke-width:2.5;" width="4" x="284.0288" y="578.8377"/><text fill="#000000" font-family="'Liberation Sans'" font-size="20" font-weight="700" lengthAdjust="spacing" textLength="148.9648" x="60.98" y="606.5974">Card Rasteriser</text><text fill="#000000" font-family="'Liberation Sans'" font-size="20" font-weight="700" lengthAdjust="spacing" textLength="154.4629" x="60.98" y="629.5955">&#171;html-to-image&#187;</text><text fill="#000000" font-family="'Liberation Sans'" font-size="20" font-weight="700" lengthAdjust="spacing" textLength="220.0488" x="60.98" y="652.5935">FactCheckCard to PNG</text></g><!--entity SDK--><g class="entity" data-qualified-name="CLIENT.SDK" data-source-line="56" id="ent0013"><rect fill="#F8F8F8" height="98.9941" rx="2.5" ry="2.5" style="stroke:#000000;stroke-width:2.5;" width="324.541" x="199.73" y="1278.8077"/><rect fill="#F8F8F8" height="10" style="stroke:#000000;stroke-width:2.5;" width="15" x="504.271" y="1283.8077"/><rect fill="#F8F8F8" height="2" style="stroke:#000000;stroke-width:2.5;" width="4" x="502.271" y="1285.8077"/><rect fill="#F8F8F8" height="2" style="stroke:#000000;stroke-width:2.5;" width="4" x="502.271" y="1289.8077"/><text fill="#000000" font-family="'Liberation Sans'" font-size="20" font-weight="700" lengthAdjust="spacing" textLength="216.748" x="214.73" y="1317.5674">Firebase Web SDK v12</text><text fill="#000000" font-family="'Liberation Sans'" font-size="20" font-weight="700" lengthAdjust="spacing" textLength="284.541" x="214.73" y="1340.5655">&#171;firebase/app, auth, firestore&#187;</text><text fill="#000000" font-family="'Liberation Sans'" font-size="20" font-weight="700" lengthAdjust="spacing" textLength="255.6348" x="214.73" y="1363.5635">initialised by lib/firebase.ts</text></g><!--entity FBAUTH--><g class="entity" data-qualified-name="CLOUD.FBAUTH" data-source-line="63" id="ent0017"><rect fill="#F8F8F8" height="98.9941" rx="2.5" ry="2.5" style="stroke:#000000;stroke-width:2.5;" width="353.9453" x="91.03" y="1622.7977"/><rect fill="#F8F8F8" height="10" style="stroke:#000000;stroke-width:2.5;" width="15" x="424.9753" y="1627.7977"/><rect fill="#F8F8F8" height="2" style="stroke:#000000;stroke-width:2.5;" width="4" x="422.9753" y="1629.7977"/><rect fill="#F8F8F8" height="2" style="stroke:#000000;stroke-width:2.5;" width="4" x="422.9753" y="1633.7977"/><text fill="#000000" font-family="'Liberation Sans'" font-size="20" font-weight="700" lengthAdjust="spacing" textLength="227.8125" x="106.03" y="1661.5574">Firebase Authentication</text><text fill="#000000" font-family="'Liberation Sans'" font-size="20" font-weight="700" lengthAdjust="spacing" textLength="313.9453" x="106.03" y="1684.5555">email/password + Google OAuth,</text><text fill="#000000" font-family="'Liberation Sans'" font-size="20" font-weight="700" lengthAdjust="spacing" textLength="154.4629" x="106.03" y="1707.5535">ID token issuing</text></g><!--entity FSTORE--><g class="entity" data-qualified-name="CLOUD.FSTORE" data-source-line="64" id="ent0018"><rect fill="#F8F8F8" height="98.9941" rx="2.5" ry="2.5" style="stroke:#000000;stroke-width:2.5;" width="302.3047" x="484.85" y="1622.7977"/><rect fill="#F8F8F8" height="10" style="stroke:#000000;stroke-width:2.5;" width="15" x="767.1547" y="1627.7977"/><rect fill="#F8F8F8" height="2" style="stroke:#000000;stroke-width:2.5;" width="4" x="765.1547" y="1629.7977"/><rect fill="#F8F8F8" height="2" style="stroke:#000000;stroke-width:2.5;" width="4" x="765.1547" y="1633.7977"/><text fill="#000000" font-family="'Liberation Sans'" font-size="20" font-weight="700" lengthAdjust="spacing" textLength="147.793" x="499.85" y="1661.5574">Cloud Firestore</text><text fill="#000000" font-family="'Liberation Sans'" font-size="20" font-weight="700" lengthAdjust="spacing" textLength="262.3047" x="499.85" y="1684.5555">users, claims, notifications,</text><text fill="#000000" font-family="'Liberation Sans'" font-size="20" font-weight="700" lengthAdjust="spacing" textLength="180.0293" x="499.85" y="1707.5535">reports, audit_logs</text></g><!--entity RULES--><g class="entity" data-qualified-name="CLOUD.RULES" data-source-line="65" id="ent0019"><rect fill="#F8F8F8" height="121.9922" rx="2.5" ry="2.5" style="stroke:#000000;stroke-width:2.5;" width="294.5703" x="267.71" y="1808.7977"/><rect fill="#F8F8F8" height="10" style="stroke:#000000;stroke-width:2.5;" width="15" x="542.2803" y="1813.7977"/><rect fill="#F8F8F8" height="2" style="stroke:#000000;stroke-width:2.5;" width="4" x="540.2803" y="1815.7977"/><rect fill="#F8F8F8" height="2" style="stroke:#000000;stroke-width:2.5;" width="4" x="540.2803" y="1819.7977"/><text fill="#000000" font-family="'Liberation Sans'" font-size="20" font-weight="700" lengthAdjust="spacing" textLength="230.0879" x="282.71" y="1847.5574">Firestore Security Rules</text><text fill="#000000" font-family="'Liberation Sans'" font-size="20" font-weight="700" lengthAdjust="spacing" textLength="254.5703" x="282.71" y="1870.5555">&#171;server-side enforcement&#187;</text><text fill="#000000" font-family="'Liberation Sans'" font-size="20" font-weight="700" lengthAdjust="spacing" textLength="188.916" x="282.71" y="1893.5535">role, ownership and</text><text fill="#000000" font-family="'Liberation Sans'" font-size="20" font-weight="700" lengthAdjust="spacing" textLength="238.9551" x="282.71" y="1916.5516">field-immutability checks</text></g><!--entity I_AUTH--><g class="entity" data-qualified-name="I_AUTH" data-source-line="59" id="ent0014"><ellipse cx="297" cy="1486.7977" fill="#F1F1F1" rx="8" ry="8" style="stroke:#181818;stroke-width:2.5;"/><text fill="#000000" font-family="'Liberation Sans'" font-size="18" lengthAdjust="spacing" textLength="119.083" x="237.4585" y="1520.6814">IAuthentication</text></g><!--entity I_DB--><g class="entity" data-qualified-name="I_DB" data-source-line="60" id="ent0015"><ellipse cx="556" cy="1486.7977" fill="#F1F1F1" rx="8" ry="8" style="stroke:#181818;stroke-width:2.5;"/><text fill="#000000" font-family="'Liberation Sans'" font-size="18" lengthAdjust="spacing" textLength="130.0605" x="490.9697" y="1520.6814">IDocumentStore</text></g><!--entity CDN--><g class="entity" data-qualified-name="CDN" data-source-line="68" id="ent0020"><path d="M884.999,1300.0525 C889.6283,1288.6888 899.679,1288.669 905.5103,1298.9113 C909.8549,1292.6604 917.2827,1292.1052 920.9117,1299.707 C927.7741,1290.3002 934.286,1291.6305 939.8382,1301.0259 C945.8878,1291.8601 952.1878,1292.6077 958.7145,1300.4979 C963.3865,1292.3339 968.8805,1291.4701 975.5677,1298.2208 C980.416,1288.5427 990.0158,1288.6181 995.2533,1297.8149 C1002.0584,1288.7272 1009.2532,1289.7889 1014.6445,1299.2898 C1020.502,1291.7088 1025.9165,1291.5442 1030.4876,1300.5207 C1035.8567,1291.2499 1043.0895,1288.5921 1050.8031,1297.9662 C1056.3377,1290.4085 1064.824,1288.442 1069.9626,1298.3994 C1074.5861,1289.942 1082.4779,1291.6382 1086.4962,1299.0308 C1091.5665,1290.4146 1100.8282,1288.7421 1106.4524,1298.4268 C1112.3391,1290.6998 1119.1579,1290.2332 1124.1974,1299.3209 C1129.3494,1291.467 1136.3841,1291.1593 1140.9581,1299.9046 C1157.8775,1304.9779 1164.7546,1314.1692 1153.3268,1330.6474 C1164.6347,1345.3941 1158.5393,1357.1323 1141.153,1359.9634 C1135.2706,1367.7499 1128.2861,1367.976 1122.4299,1359.9324 C1118.6848,1368.2786 1113.1836,1369.8653 1105.9774,1363.9157 C1099.5864,1372.7909 1093.8177,1371.9352 1088.2739,1363.0702 C1083.8536,1374.0202 1073.8152,1374.9003 1068.0402,1364.3447 C1062.6733,1371.8654 1057.8278,1372.1073 1051.9179,1364.9408 C1046.7106,1373.518 1038.9904,1375.5814 1032.3621,1366.5158 C1029.3369,1375.4628 1020.8139,1379.2317 1014.1692,1370.1728 C1007.3183,1379.9555 999.8434,1377.9214 994.4245,1368.6861 C987.4757,1378.038 979.4873,1376.4769 975.5081,1365.8714 C970.4929,1374.3581 964.5242,1374.7464 959.1423,1366.2243 C950.8456,1374.8455 943.8548,1374.1246 939.5823,1362.3626 C933.7567,1369.0193 927.7833,1369.3126 922.4652,1361.7516 C915.7646,1372.464 909.5987,1370.7035 902.3292,1362.3525 C896.0434,1369.2431 888.353,1370.2944 884.372,1359.951 C865.2558,1357.0156 863.5946,1346.4698 872.3637,1331.6871 C860.1172,1317.4441 864.7063,1301.2989 884.999,1300.0525" fill="#F1F1F1" style="stroke:#181818;stroke-width:0.5;"/><text fill="#000000" font-family="'Liberation Sans'" font-size="20" lengthAdjust="spacing" textLength="124.4922" x="890.81" y="1324.0674">tessdata CDN</text><text fill="#000000" font-family="'Liberation Sans'" font-size="20" lengthAdjust="spacing" textLength="242.3828" x="890.81" y="1347.0655">(traineddata language files)</text></g><!--link SHELL to VIEWS--><g class="link" data-entity-1="ent0002" data-entity-2="ent0003" data-link-type="dependency" data-source-line="70" id="lnk21"><path d="M579.22,211.7277 C539.97,235.4877 496.7077,261.669 455.1977,286.789" fill="none" id="SHELL-to-VIEWS" style="stroke:#000000;stroke-width:2.5;"/><polygon fill="#000000" points="450.92,289.3777,460.6908,288.1402,455.1977,286.789,456.5489,281.2959,450.92,289.3777" style="stroke:#000000;stroke-width:2.5;stroke-linejoin:miter;stroke-miterlimit:10;"/><text fill="#000000" font-family="'Liberation Sans'" font-size="17" font-weight="700" lengthAdjust="spacing" textLength="72.7231" x="515.77" y="262.7835">routes to</text></g><!--link VIEWS to UIKIT--><g class="link" data-entity-1="ent0003" data-entity-2="ent0004" data-link-type="dependency" data-source-line="71" id="lnk22"><path d="M331.03,289.5977 C323.99,268.3777 317.6531,249.2837 310.6131,228.0437" fill="none" id="VIEWS-to-UIKIT" style="stroke:#000000;stroke-width:2.5;stroke-dasharray:7,7;"/><polygon fill="#000000" points="309.04,223.2977,308.0747,233.0991,310.6131,228.0437,315.6684,230.5821,309.04,223.2977" style="stroke:#000000;stroke-width:2.5;stroke-linejoin:miter;stroke-miterlimit:10;"/><text fill="#000000" font-family="'Liberation Sans'" font-size="17" font-weight="700" lengthAdjust="spacing" textLength="84.0869" x="322.86" y="262.7835">composes</text></g><!--link UIKIT to VIEWS--><!--link VIEWS to I_STATE--><g class="link" data-entity-1="ent0003" data-entity-2="ent0005" data-link-type="dependency" data-source-line="72" id="lnk23"><path d="M399.39,411.9477 C427.28,446.5977 456.2539,482.5834 469.5739,499.1234" fill="none" id="VIEWS-to-I_STATE" style="stroke:#000000;stroke-width:2.5;stroke-dasharray:7,7;"/><polygon fill="#000000" points="472.71,503.0177,470.1804,493.4992,469.5739,499.1234,463.9497,498.5169,472.71,503.0177" style="stroke:#000000;stroke-width:2.5;stroke-linejoin:miter;stroke-miterlimit:10;"/><text fill="#000000" font-family="'Liberation Sans'" font-size="17" font-weight="700" lengthAdjust="spacing" textLength="67.0869" x="434.94" y="451.7835">requires</text></g><!--link I_STATE to CTX--><g class="link" data-entity-1="ent0005" data-entity-2="ent0006" data-link-type="association" data-source-line="73" id="lnk24"><path d="M480.43,520.7177 C485.13,546.6177 500.4,630.7877 511.06,689.5477" fill="none" id="I_STATE-CTX" style="stroke:#000000;stroke-width:2.5;"/><text fill="#000000" font-family="'Liberation Sans'" font-size="17" font-weight="700" lengthAdjust="spacing" textLength="70.8555" x="507.86" y="623.7735">provides</text></g><!--link VIEWS to I_OCR--><g class="link" data-entity-1="ent0003" data-entity-2="ent0007" data-link-type="dependency" data-source-line="74" id="lnk25"><path d="M482.14,412.2577 C493,419.2477 503.46,426.7877 513,434.8377 C664.38,562.4377 735.8701,806.6596 748.6401,854.0896" fill="none" id="VIEWS-to-I_OCR" style="stroke:#000000;stroke-width:2.5;stroke-dasharray:7,7;"/><polygon fill="#000000" points="749.94,858.9177,751.4626,849.1872,748.6401,854.0896,743.7377,851.2671,749.94,858.9177" style="stroke:#000000;stroke-width:2.5;stroke-linejoin:miter;stroke-miterlimit:10;"/><text fill="#000000" font-family="'Liberation Sans'" font-size="17" font-weight="700" lengthAdjust="spacing" textLength="67.0869" x="610.29" y="518.2835">requires</text></g><!--link VIEWS to CARD--><g class="link" data-entity-1="ent0003" data-entity-2="ent0012" data-link-type="dependency" data-source-line="75" id="lnk26"><path d="M256.26,412.1577 C248.8,419.2177 241.89,426.7877 236,434.8377 C207.06,474.3177 192.5517,523.659 184.6017,562.539" fill="none" id="VIEWS-to-CARD" style="stroke:#000000;stroke-width:2.5;stroke-dasharray:7,7;"/><polygon fill="#000000" points="183.6,567.4377,189.3219,559.4214,184.6017,562.539,181.4841,557.8188,183.6,567.4377" style="stroke:#000000;stroke-width:2.5;stroke-linejoin:miter;stroke-miterlimit:10;"/><text fill="#000000" font-family="'Liberation Sans'" font-size="17" font-weight="700" lengthAdjust="spacing" textLength="102.9712" x="237" y="451.7835">exports PNG</text></g><!--link CTX to I_REPO--><g class="link" data-entity-1="ent0006" data-entity-2="ent0008" data-link-type="dependency" data-source-line="76" id="lnk27"><path d="M547.69,812.0777 C570.73,866.1377 600.5004,935.9477 610.7204,959.9377" fill="none" id="CTX-to-I_REPO" style="stroke:#000000;stroke-width:2.5;stroke-dasharray:7,7;"/><polygon fill="#000000" points="612.68,964.5377,612.8326,954.69,610.7204,959.9377,605.4727,957.8254,612.68,964.5377" style="stroke:#000000;stroke-width:2.5;stroke-linejoin:miter;stroke-miterlimit:10;"/><text fill="#000000" font-family="'Liberation Sans'" font-size="17" font-weight="700" lengthAdjust="spacing" textLength="67.0869" x="583.91" y="874.2635">requires</text></g><!--link CTX to DOMAIN--><g class="link" data-entity-1="ent0006" data-entity-2="ent0011" data-link-type="dependency" data-source-line="77" id="lnk28"><path d="M430.06,812.2977 C421.24,819.4777 412.72,827.0377 405,834.8177 C379.82,860.2077 383.69,874.9577 359,900.8177 C351.55,908.6277 347.0261,913.0488 338.4561,920.2588" fill="none" id="CTX-to-DOMAIN" style="stroke:#000000;stroke-width:2.5;stroke-dasharray:7,7;"/><polygon fill="#000000" points="334.63,923.4777,344.092,920.7445,338.4561,920.2588,338.9418,914.6228,334.63,923.4777" style="stroke:#000000;stroke-width:2.5;stroke-linejoin:miter;stroke-miterlimit:10;"/><text fill="#000000" font-family="'Liberation Sans'" font-size="17" font-weight="700" lengthAdjust="spacing" textLength="141.7524" x="406" y="874.2635">scores / validates</text></g><!--link VIEWS to DOMAIN--><g class="link" data-entity-1="ent0003" data-entity-2="ent0011" data-link-type="dependency" data-source-line="78" id="lnk29"><path d="M349.18,412.1377 C348.45,426.4777 347.43,441.7177 346,455.8377 C328.5,628.7077 293.3381,827.0427 276.2581,918.4827" fill="none" id="VIEWS-to-DOMAIN" style="stroke:#000000;stroke-width:2.5;stroke-dasharray:7,7;"/><polygon fill="#000000" points="275.34,923.3977,280.9245,915.2851,276.2581,918.4827,273.0605,913.8162,275.34,923.3977" style="stroke:#000000;stroke-width:2.5;stroke-linejoin:miter;stroke-miterlimit:10;"/><text fill="#000000" font-family="'Liberation Sans'" font-size="17" font-weight="700" lengthAdjust="spacing" textLength="119.0249" x="333.44" y="623.7735">sanitises input</text></g><!--link I_OCR to OCR--><g class="link" data-entity-1="ent0007" data-entity-2="ent0009" data-link-type="association" data-source-line="79" id="lnk30"><path d="M750.22,876.6277 C743.32,906.9477 717.87,1018.6477 701.74,1089.4877" fill="none" id="I_OCR-OCR" style="stroke:#000000;stroke-width:2.5;"/><text fill="#000000" font-family="'Liberation Sans'" font-size="17" font-weight="700" lengthAdjust="spacing" textLength="70.8555" x="740.31" y="979.7635">provides</text></g><!--link I_REPO to FSVC--><g class="link" data-entity-1="ent0008" data-entity-2="ent0010" data-link-type="association" data-source-line="80" id="lnk31"><path d="M607.26,980.3577 C582.44,997.5077 509.48,1047.9177 449.54,1089.3277" fill="none" id="I_REPO-FSVC" style="stroke:#000000;stroke-width:2.5;"/><text fill="#000000" font-family="'Liberation Sans'" font-size="17" font-weight="700" lengthAdjust="spacing" textLength="70.8555" x="512.75" y="1062.7635">provides</text></g><!--link OCR to CDN--><g class="link" data-entity-1="ent0009" data-entity-2="ent0020" data-link-type="dependency" data-source-line="81" id="lnk32"><path d="M799.5,1212.2077 C847.1,1237.9877 896.7537,1264.876 938.4337,1287.456" fill="none" id="OCR-to-CDN" style="stroke:#000000;stroke-width:2.5;stroke-dasharray:7,7;"/><polygon fill="#000000" points="942.83,1289.8377,936.822,1282.0336,938.4337,1287.456,933.0113,1289.0677,942.83,1289.8377" style="stroke:#000000;stroke-width:2.5;stroke-linejoin:miter;stroke-miterlimit:10;"/><text fill="#000000" font-family="'Liberation Sans'" font-size="17" font-weight="700" lengthAdjust="spacing" textLength="143.562" x="880.02" y="1251.7535">downloads model</text></g><!--link FSVC to SDK--><g class="link" data-entity-1="ent0010" data-entity-2="ent0013" data-link-type="dependency" data-source-line="82" id="lnk33"><path d="M362,1212.2077 C362,1233.8177 362,1252.8977 362,1273.4177" fill="none" id="FSVC-to-SDK" style="stroke:#000000;stroke-width:2.5;"/><polygon fill="#000000" points="362,1278.4177,366,1269.4177,362,1273.4177,358,1269.4177,362,1278.4177" style="stroke:#000000;stroke-width:2.5;stroke-linejoin:miter;stroke-miterlimit:10;"/><text fill="#000000" font-family="'Liberation Sans'" font-size="17" font-weight="700" lengthAdjust="spacing" textLength="38.748" x="363" y="1251.7535">uses</text></g><!--link SDK to I_AUTH--><g class="link" data-entity-1="ent0013" data-entity-2="ent0014" data-link-type="dependency" data-source-line="83" id="lnk34"><path d="M315.95,1378.2977 C309.07,1388.0877 302.96,1398.7777 299,1409.7977 C290.51,1433.3977 292.7776,1458.8931 294.8976,1473.0131" fill="none" id="SDK-to-I_AUTH" style="stroke:#000000;stroke-width:2.5;stroke-dasharray:7,7;"/><polygon fill="#000000" points="295.64,1477.9577,298.2594,1468.4635,294.8976,1473.0131,290.348,1469.6513,295.64,1477.9577" style="stroke:#000000;stroke-width:2.5;stroke-linejoin:miter;stroke-miterlimit:10;"/><text fill="#000000" font-family="'Liberation Sans'" font-size="17" font-weight="700" lengthAdjust="spacing" textLength="67.0869" x="300" y="1426.7435">requires</text></g><!--link SDK to I_DB--><g class="link" data-entity-1="ent0013" data-entity-2="ent0015" data-link-type="dependency" data-source-line="84" id="lnk35"><path d="M422.58,1378.1777 C467.72,1414.5877 521.2787,1457.7879 543.1287,1475.4179" fill="none" id="SDK-to-I_DB" style="stroke:#000000;stroke-width:2.5;stroke-dasharray:7,7;"/><polygon fill="#000000" points="547.02,1478.5577,542.5275,1469.7931,543.1287,1475.4179,537.5039,1476.0192,547.02,1478.5577" style="stroke:#000000;stroke-width:2.5;stroke-linejoin:miter;stroke-miterlimit:10;"/><text fill="#000000" font-family="'Liberation Sans'" font-size="17" font-weight="700" lengthAdjust="spacing" textLength="67.0869" x="488.71" y="1426.7435">requires</text></g><!--link I_AUTH to FBAUTH--><g class="link" data-entity-1="ent0014" data-entity-2="ent0017" data-link-type="association" data-source-line="85" id="lnk36"><path d="M295.75,1495.6877 C292.35,1517.2277 282.68,1578.3977 275.71,1622.4877" fill="none" id="I_AUTH-FBAUTH" style="stroke:#000000;stroke-width:2.5;"/><text fill="#000000" font-family="'Liberation Sans'" font-size="17" font-weight="700" lengthAdjust="spacing" textLength="70.8555" x="288.62" y="1559.7435">provides</text></g><!--link I_DB to FSTORE--><g class="link" data-entity-1="ent0015" data-entity-2="ent0018" data-link-type="association" data-source-line="86" id="lnk37"><path d="M559.44,1495.6877 C568.83,1517.2277 595.5,1578.3977 614.72,1622.4877" fill="none" id="I_DB-FSTORE" style="stroke:#000000;stroke-width:2.5;"/><text fill="#000000" font-family="'Liberation Sans'" font-size="17" font-weight="700" lengthAdjust="spacing" textLength="70.8555" x="589.83" y="1559.7435">provides</text></g><!--link FSTORE to RULES--><g class="link" data-entity-1="ent0018" data-entity-2="ent0019" data-link-type="dependency" data-source-line="87" id="lnk38"><path d="M597.53,1722.2877 C580.14,1742.9977 558.65,1766.6877 537,1785.7977 C528.26,1793.5077 522.781,1798.109 513.081,1805.379" fill="none" id="FSTORE-to-RULES" style="stroke:#000000;stroke-width:2.5;stroke-dasharray:7,7;"/><polygon fill="#000000" points="509.08,1808.3777,518.6807,1806.1808,513.081,1805.379,513.8828,1799.7792,509.08,1808.3777" style="stroke:#000000;stroke-width:2.5;stroke-linejoin:miter;stroke-miterlimit:10;"/><text fill="#000000" font-family="'Liberation Sans'" font-size="17" font-weight="700" lengthAdjust="spacing" textLength="129.4673" x="585.2791" y="1761.7435">every read/write</text><text fill="#000000" font-family="'Liberation Sans'" font-size="17" font-weight="700" lengthAdjust="spacing" textLength="142.6655" x="578.68" y="1781.2918">evaluated against</text></g><!--link FBAUTH to RULES--><g class="link" data-entity-1="ent0017" data-entity-2="ent0019" data-link-type="dependency" data-source-line="88" id="lnk39"><path d="M304.72,1722.1277 C324.36,1748.2477 345.7249,1776.6615 366.5549,1804.3615" fill="none" id="FBAUTH-to-RULES" style="stroke:#000000;stroke-width:2.5;"/><polygon fill="#000000" points="369.56,1808.3577,367.3478,1798.7605,366.5549,1804.3615,360.9539,1803.5686,369.56,1808.3577" style="stroke:#000000;stroke-width:2.5;stroke-linejoin:miter;stroke-miterlimit:10;"/><text fill="#000000" font-family="'Liberation Sans'" font-size="17" font-weight="700" lengthAdjust="spacing" textLength="175.7026" x="351.3" y="1771.7435">supplies request.auth</text></g><!--link DOMAIN to SDK--><!--link OCR to SDK--><!--link OCR to FSVC--><!--link CARD to DOMAIN--><?plantuml-src XLPHRzj637xNho2obnIBagROkYue0jYMtHbDuynoqW7pK9mbshxvTAVTdPAwnVxxo9DiowwplYJMaKT-_FYHabj9NGeh2d1-hP3-Mfdvgb2HsreAeqssjAP0yBR2bYN7kQYK7nZjRmMPJsxa3AtmqcX8XNOdntrJ-GNXrSjdZ077pAYyPVVIAznTVNtKjBlOCiz4jbfOK-cyPvInyBIKlbr2nrhpL9jcYdmFJPEbp5OQdODNvpyV6hU8BdyvQZgAQ8oP5tgXi6jiZlPuxWEdvr3it0xAz9Re9n_K_fZxyIxicu-2xvcYD9gY_X_u0wVdmE_S3i3_C7Wp-7NGEUPw7FY-kGKyY0C68gDJKPGGxrmXaM91bzlL3RL7EnVPTrZVkktw_wPblgDonAB5yUMtnk-qLUYLmn9-QX_UcXp3uSieAkieSD9JackPIBHmTGKVSGPTKf-ZnrCdkPTnoOwYB9NCmcI-E07Xe7SpxDzEu6iK0MHRJauwPGdf4fK2eNCOcuegdUgtRyT875APy2DO_XdRO8fpKy3Zw-lhgLRYopfMHkIOGp2wC-ZJ9DWkDrROTKYR_jQ_kJd8USS07oG-ESvqULbVp-6HZpXqMiqAwS_W0QsSht-liCBDGu9UI7KsrJqbPD4yGIBSScQ4pS-WanTIXzGFm_x7T3_p_H3khAJOyX61TfSbc0736yWgvwcshNC0qgsyD_eCFfXSg00Xfsrv9rL083mkZ5rtHRuWVEaA5PAt2ydlX--74wvRRhG39qCYcsJfCNWCFwMJpgI_3x176iBFdb2QHqc2WHknRZUaiJEsJkMNPn1e8ERlIG6EGDqQB-TDu-buiiIYJjUR_748PvJP_cTQ71axDvX6lV61LyWmnj8uwKtJrU6dSVzkTD1MazaKxQFCaF6I7WWInJx_sy77Jle1denTeMNeM6UTqFy1lMQ61GdYz0MXpz7JIWePD-oUrlAjSRMopQN5cN3OIfaBBq1a6MNcBBtnVKBoDJhLedHBuwUQfAnYB-dDvQgPowmi0qyXmo1zw1rKb9X2I0qtPY4pra2bqC6fahCN1BMg1moJW9dVW37TrNDgcyumpOmbK0wpoag_9jiJuagjcKZhwL5oqRoSBC7Ty9-CFdI6jmSeUgHhsX2EMY9TBOQbBwWE4uSWN2jllDuIirLmzWRkRj_LRU-CauDuWuQvi3pIv3qyNhxYe1j6BsXtd848yk8pcWiRaaXDWoCKWSXXjWRYuM9pvzpN95AuwDyesXCz1QAyZIOR-NJk9x_jUIKcgmhaPKx96gUasrfyt6UQXytYUsSCxJgIlwboEEKN2jB-eci26aLirjw8LF3r6GRsiP4mgT_geXJEaLXp4a-JPXI6RQg72N5BcK0wLz6shONJ3TNizopW6cpOc-egp2TapRZglJ5bOR8i7DEUI_z9cSL6b9FHkFyj-X2LActKDMPbSWzTO2bs9490FJSsGsQLksUDeYrbdZG1MSgIz_sKr8eg9naLbHSpgJXMnZAgiu_lR_efzpCBvPpmJ8SXwoMtKtrAGomrvk54qNT4nOsQIuBIS9-GbCCB0EBukjx7SDMyB8Z8g3uvFx-kroNPGfaENSlKx4c-YFzKN7kqEOfZNcjaAUjrkN-DLaRxqix4Cq4M_1muvr69E4nzYnTR-zh6KeycMHnFjeCBUAHHeDhtGk-y10yBLKAxjAnyLCCXm3MgBU0c8Hbu_xGjx1ZG9XmlfyRnozRHrtcEAWhUp2eFy1LKp1d_h8jWGRQBs5cIxZwHmPEpTvixBMJa6t2n1DkMveG31eKmbwIwDNyfv1TFf4WIF18zbU3NkbYGJ9oFcXGCUdFDLVoPGYGn8XBrEM-TA6fOZFzSofoswLzSV1nsIo3ns-DQFbk3bOkbZviFWBqhZINi-Y23GqkpWVy3?></g></svg>