<svg xmlns="http://www.w3.org/2000/svg" xmlns:xlink="http://www.w3.org/1999/xlink" version="1.1" data-diagram-type="DESCRIPTION" style="width:1166px;height:1578px;background:#FFFFFF;" width="1166px" height="1578px" viewBox="0 0 1166 1578" zoomAndPan="magnify" preserveAspectRatio="none" contentStyleType="text/css"><?plantuml 1.2026.8?><defs/><g font-family="sans-serif" lengthAdjust="spacing"><g class="title" data-source-line="55"><text x="328.108" y="34.388" fill="#000" font-size="26" textLength="502.785" font-weight="700" font-family="'Liberation Sans'">FactStamp - Data Flow Diagram (Level 1)</text></g><!--entity VER--><g class="entity" data-qualified-name="VER" id="ent0001" data-source-line="58"><rect x="886.21" y="249.907" width="123.369" height="65.996" fill="none" style="stroke:#000;stroke-width:2.5;" rx="2.5" ry="2.5"/><text x="896.21" y="278.667" fill="#000" font-size="20" textLength="103.369" font-weight="700" font-family="'Liberation Sans'">Registered</text><text x="896.21" y="301.665" fill="#000" font-size="20" textLength="68.926" font-weight="700" font-family="'Liberation Sans'">Verifier</text></g><!--entity P1--><g class="entity" data-qualified-name="P1" id="ent0002" data-source-line="59"><ellipse cx="707.888" cy="76.229" rx="84.658" ry="19.332" fill="#F8F8F8" style="stroke:#000;stroke-width:2.5;"/><text x="647.187" y="83.653" fill="#000" font-size="19" textLength="121.403" font-weight="700" font-family="'Liberation Sans'">Submit Claim</text></g><!--entity P2--><g class="entity" data-qualified-name="P2" id="ent0003" data-source-line="60"><ellipse cx="625.887" cy="282.905" rx="99.637" ry="22.327" fill="#F8F8F8" style="stroke:#000;stroke-width:2.5;"/><text x="546.167" y="290.329" fill="#000" font-size="19" textLength="159.44" font-weight="700" font-family="'Liberation Sans'">Detect Duplicates</text></g><!--entity D1--><g class="entity" data-qualified-name="D1" id="ent0004" data-source-line="61"><path d="M293.27,256.557 C293.27,246.557 371.89,246.557 371.89,246.557 C371.89,246.557 450.51,246.557 450.51,256.557 L450.51,309.254 C450.51,319.254 371.89,319.254 371.89,319.254 C371.89,319.254 293.27,319.254 293.27,309.254 L293.27,256.557" style="stroke:#000;stroke-width:0.5;" fill="#F8F8F8"/><path d="M293.27,256.557 C293.27,266.557 371.89,266.557 371.89,266.557 C371.89,266.557 450.51,266.557 450.51,256.557" style="stroke:#000;stroke-width:0.5;" fill="none"/><text x="303.27" y="288.379" fill="#000" font-size="19" textLength="62.307" font-weight="700" font-family="'Liberation Sans'">Claims</text><text x="303.27" y="310.227" fill="#000" font-size="19" textLength="137.24" font-weight="700" font-family="'Liberation Sans'">(verifications[])</text></g><!--entity D6--><g class="entity" data-qualified-name="D6" id="ent0005" data-source-line="62"><path d="M740.46,267.477 C740.46,257.477 805.892,257.477 805.892,257.477 C805.892,257.477 871.324,257.477 871.324,267.477 L871.324,298.326 C871.324,308.326 805.892,308.326 805.892,308.326 C805.892,308.326 740.46,308.326 740.46,298.326 L740.46,267.477" style="stroke:#000;stroke-width:0.5;" fill="#F8F8F8"/><path d="M740.46,267.477 C740.46,277.477 805.892,277.477 805.892,277.477 C805.892,277.477 871.324,277.477 871.324,267.477" style="stroke:#000;stroke-width:0.5;" fill="none"/><text x="750.46" y="299.299" fill="#000" font-size="19" textLength="110.864" font-weight="700" font-family="'Liberation Sans'">Claim Media</text></g><!--entity P3--><g class="entity" data-qualified-name="P3" id="ent0006" data-source-line="63"><ellipse cx="781.888" cy="501.16" rx="110.198" ry="30.903" fill="#F8F8F8" style="stroke:#000;stroke-width:2.5;"/><text x="746.518" y="493.168" fill="#000" font-size="19" textLength="70.74" font-weight="700" font-family="'Liberation Sans'">Manage</text><text x="697.951" y="515.016" fill="#000" font-size="19" textLength="167.874" font-weight="700" font-family="'Liberation Sans'">Verification Queue</text></g><!--entity P4--><g class="entity" data-qualified-name="P4" id="ent0007" data-source-line="64"><ellipse cx="769.893" cy="714.556" rx="115.893" ry="31.498" fill="#F8F8F8" style="stroke:#000;stroke-width:2.5;"/><text x="683.344" y="714.606" fill="#000" font-size="19" textLength="173.097" font-weight="700" font-family="'Liberation Sans'">Compute Weighted</text><text x="718.686" y="736.454" fill="#000" font-size="19" textLength="102.413" font-weight="700" font-family="'Liberation Sans'">Consensus</text></g><!--entity D2--><g class="entity" data-qualified-name="D2" id="ent0008" data-source-line="65"><path d="M429.49,699.127 C429.49,689.127 465.898,689.127 465.898,689.127 C465.898,689.127 502.306,689.127 502.306,699.127 L502.306,729.976 C502.306,739.976 465.898,739.976 465.898,739.976 C465.898,739.976 429.49,739.976 429.49,729.976 L429.49,699.127" style="stroke:#000;stroke-width:0.5;" fill="#F8F8F8"/><path d="M429.49,699.127 C429.49,709.127 465.898,709.127 465.898,709.127 C465.898,709.127 502.306,709.127 502.306,699.127" style="stroke:#000;stroke-width:0.5;" fill="none"/><text x="439.49" y="730.949" fill="#000" font-size="19" textLength="52.816" font-weight="700" font-family="'Liberation Sans'">Users</text></g><!--entity D3--><g class="entity" data-qualified-name="D3" id="ent0009" data-source-line="66"><path d="M993.37,699.127 C993.37,689.127 1060.899,689.127 1060.899,689.127 C1060.899,689.127 1128.428,689.127 1128.428,699.127 L1128.428,729.976 C1128.428,739.976 1060.899,739.976 1060.899,739.976 C1060.899,739.976 993.37,739.976 993.37,729.976 L993.37,699.127" style="stroke:#000;stroke-width:0.5;" fill="#F8F8F8"/><path d="M993.37,699.127 C993.37,709.127 1060.899,709.127 1060.899,709.127 C1060.899,709.127 1128.428,709.127 1128.428,699.127" style="stroke:#000;stroke-width:0.5;" fill="none"/><text x="1003.37" y="730.949" fill="#000" font-size="19" textLength="115.058" font-weight="700" font-family="'Liberation Sans'">Notifications</text></g><!--entity P6--><g class="entity" data-qualified-name="P6" id="ent0010" data-source-line="67"><ellipse cx="503.887" cy="928.371" rx="102.267" ry="22.853" fill="#F8F8F8" style="stroke:#000;stroke-width:2.5;"/><text x="420.998" y="935.795" fill="#000" font-size="19" textLength="165.777" font-weight="700" font-family="'Liberation Sans'">Produce Analytics</text></g><!--entity P5--><g class="entity" data-qualified-name="P5" id="ent0011" data-source-line="68"><ellipse cx="285.892" cy="928.363" rx="100.842" ry="31.315" fill="#F8F8F8" style="stroke:#000;stroke-width:2.5;"/><text x="244.705" y="921.027" fill="#000" font-size="19" textLength="82.374" font-weight="700" font-family="'Liberation Sans'">Generate</text><text x="210.397" y="942.875" fill="#000" font-size="19" textLength="150.989" font-weight="700" font-family="'Liberation Sans'">Fact-Check Card</text></g><!--entity VIS--><g class="entity" data-qualified-name="VIS" id="ent0012" data-source-line="69"><rect x="219.22" y="1110.687" width="133.34" height="65.996" fill="none" style="stroke:#000;stroke-width:2.5;" rx="2.5" ry="2.5"/><text x="229.22" y="1139.447" fill="#000" font-size="20" textLength="62.236" font-weight="700" font-family="'Liberation Sans'">Visitor</text><text x="229.22" y="1162.445" fill="#000" font-size="20" textLength="113.34" font-weight="700" font-family="'Liberation Sans'">(Read-Only)</text></g><!--entity P7--><g class="entity" data-qualified-name="P7" id="ent0013" data-source-line="70"><ellipse cx="171.893" cy="1319.577" rx="68.633" ry="31.899" fill="#F8F8F8" style="stroke:#000;stroke-width:2.5;"/><text x="122.273" y="1319.009" fill="#000" font-size="19" textLength="99.24" font-weight="700" font-family="'Liberation Sans'">Administer</text><text x="138.124" y="1340.857" fill="#000" font-size="19" textLength="67.539" font-weight="700" font-family="'Liberation Sans'">&amp; Audit</text></g><!--entity D4--><g class="entity" data-qualified-name="D4" id="ent0014" data-source-line="71"><path d="M6,1512.477 C6,1502.477 51.894,1502.477 51.894,1502.477 C51.894,1502.477 97.788,1502.477 97.788,1512.477 L97.788,1543.326 C97.788,1553.326 51.894,1553.326 51.894,1553.326 C51.894,1553.326 6,1553.326 6,1543.326 L6,1512.477" style="stroke:#000;stroke-width:0.5;" fill="#F8F8F8"/><path d="M6,1512.477 C6,1522.477 51.894,1522.477 51.894,1522.477 C51.894,1522.477 97.788,1522.477 97.788,1512.477" style="stroke:#000;stroke-width:0.5;" fill="none"/><text x="16" y="1544.299" fill="#000" font-size="19" textLength="71.788" font-weight="700" font-family="'Liberation Sans'">Reports</text></g><!--entity D5--><g class="entity" data-qualified-name="D5" id="ent0015" data-source-line="72"><path d="M112.29,1512.477 C112.29,1502.477 171.891,1502.477 171.891,1502.477 C171.891,1502.477 231.493,1502.477 231.493,1512.477 L231.493,1543.326 C231.493,1553.326 171.891,1553.326 171.891,1553.326 C171.891,1553.326 112.29,1553.326 112.29,1543.326 L112.29,1512.477" style="stroke:#000;stroke-width:0.5;" fill="#F8F8F8"/><path d="M112.29,1512.477 C112.29,1522.477 171.891,1522.477 171.891,1522.477 C171.891,1522.477 231.493,1522.477 231.493,1512.477" style="stroke:#000;stroke-width:0.5;" fill="none"/><text x="122.29" y="1544.299" fill="#000" font-size="19" textLength="99.203" font-weight="700" font-family="'Liberation Sans'">Audit Logs</text></g><!--entity ADM--><g class="entity" data-qualified-name="ADM" id="ent0016" data-source-line="73"><rect x="246.33" y="1506.407" width="151.123" height="42.998" fill="none" style="stroke:#000;stroke-width:2.5;" rx="2.5" ry="2.5"/><text x="256.33" y="1535.167" fill="#000" font-size="20" textLength="131.123" font-weight="700" font-family="'Liberation Sans'">Administrator</text></g><!--link D1 to D6--><!--link D2 to P4--><!--link D2 to P4--><g class="link" data-entity-1="ent0008" data-entity-2="ent0007" id="lnk32" data-source-line="94" data-link-type="dependency"><path d="M507.56,714.557 C544.99,714.557 595.05,714.557 648.77,714.557" style="stroke:#000;stroke-width:2.5;" fill="none" id="D2-P4-1"/><polygon points="502.56,714.557,511.56,718.557,507.56,714.557,511.56,710.557,502.56,714.557" fill="#000" style="stroke:#000;stroke-width:2.5;stroke-linejoin:miter;stroke-miterlimit:10;"/><polygon points="653.77,714.557,644.77,710.557,648.77,714.557,644.77,718.557,653.77,714.557" fill="#000" style="stroke:#000;stroke-width:2.5;stroke-linejoin:miter;stroke-miterlimit:10;"/><text x="534.245" y="687.503" fill="#000" font-size="17" textLength="88.769" font-weight="700" font-family="'Liberation Sans'">Reputation</text><text x="510.65" y="707.052" fill="#000" font-size="17" textLength="135.958" font-weight="700" font-family="'Liberation Sans'">(Cloud Function)</text></g><!--link P4 to P5--><!--link P4 to P6--><!--link VIS to P7--><!--link P1 to VER--><g class="link" data-entity-1="ent0002" data-entity-2="ent0001" id="lnk22" data-source-line="83" data-link-type="dependency"><path d="M790.46,85.249 C836.95,93.669 888.57,111.027 922.89,150.557 C946.56,177.807 950.768,215.418 950.368,244.668" style="stroke:#000;stroke-width:2.5;" fill="none" id="P1-VER"/><polygon points="785.54,84.357,793.683,89.897,790.46,85.249,795.109,82.025,785.54,84.357" fill="#000" style="stroke:#000;stroke-width:2.5;stroke-linejoin:miter;stroke-miterlimit:10;"/><polygon points="950.3,249.667,954.423,240.723,950.368,244.668,946.423,240.614,950.3,249.667" fill="#000" style="stroke:#000;stroke-width:2.5;stroke-linejoin:miter;stroke-miterlimit:10;"/><text x="946.565" y="167.503" fill="#000" font-size="17" textLength="55.74" font-weight="700" font-family="'Liberation Sans'">Claim /</text><text x="943.73" y="187.052" fill="#000" font-size="17" textLength="61.409" font-weight="700" font-family="'Liberation Sans'">Receipt</text></g><!--link P1 to P2--><g class="link" data-entity-1="ent0002" data-entity-2="ent0003" id="lnk23" data-source-line="84" data-link-type="dependency"><path d="M678.202,97.896 C661.242,111.076 644.27,127.657 633.89,150.557 C617.68,186.347 619.08,228.369 622.12,255.349" style="stroke:#000;stroke-width:2.5;" fill="none" id="P1-P2"/><polygon points="682.15,94.827,672.589,97.192,678.202,97.896,677.498,103.508,682.15,94.827" fill="#000" style="stroke:#000;stroke-width:2.5;stroke-linejoin:miter;stroke-miterlimit:10;"/><polygon points="622.68,260.317,625.647,250.926,622.12,255.349,617.697,251.822,622.68,260.317" fill="#000" style="stroke:#000;stroke-width:2.5;stroke-linejoin:miter;stroke-miterlimit:10;"/><text x="634.89" y="167.503" fill="#000" font-size="17" textLength="141.711" font-weight="700" font-family="'Liberation Sans'">Normalised Text /</text><text x="640.568" y="187.052" fill="#000" font-size="17" textLength="130.355" font-weight="700" font-family="'Liberation Sans'">Duplicate Match</text></g><!--link P1 to D1--><g class="link" data-entity-1="ent0002" data-entity-2="ent0004" id="lnk24" data-source-line="85" data-link-type="dependency"><path d="M661.2,92.627 C624.9,105.577 573.99,125.887 532.89,150.557 C487.12,178.027 444.151,214.265 412.931,242.795" style="stroke:#000;stroke-width:2.5;" fill="none" id="P1-to-D1"/><polygon points="409.24,246.167,418.582,243.049,412.931,242.795,413.185,237.143,409.24,246.167" fill="#000" style="stroke:#000;stroke-width:2.5;stroke-linejoin:miter;stroke-miterlimit:10;"/><text x="533.89" y="177.503" fill="#000" font-size="17" textLength="85.971" font-weight="700" font-family="'Liberation Sans'">New Claim</text></g><!--link P1 to D6--><g class="link" data-entity-1="ent0002" data-entity-2="ent0005" id="lnk25" data-source-line="86" data-link-type="dependency"><path d="M729.81,95.217 C744.99,108.867 764.46,128.907 775.89,150.557 C794.03,184.887 800.745,224.944 803.585,252.374" style="stroke:#000;stroke-width:2.5;" fill="none" id="P1-to-D6"/><polygon points="804.1,257.347,807.152,247.983,803.585,252.374,799.194,248.807,804.1,257.347" fill="#000" style="stroke:#000;stroke-width:2.5;stroke-linejoin:miter;stroke-miterlimit:10;"/><text x="791.84" y="177.503" fill="#000" font-size="17" textLength="127.525" font-weight="700" font-family="'Liberation Sans'">Full Screenshot</text></g><!--reverse link P2 to D1--><g class="link" data-entity-1="ent0003" data-entity-2="ent0004" id="lnk27" data-source-line="87" data-link-type="dependency"><path d="M520.88,282.907 C495.97,282.907 474.61,282.907 450.87,282.907" style="stroke:#000;stroke-width:2.5;" fill="none" id="P2-backto-D1"/><polygon points="525.88,282.907,516.88,278.907,520.88,282.907,516.88,286.907,525.88,282.907" fill="#000" style="stroke:#000;stroke-width:2.5;stroke-linejoin:miter;stroke-miterlimit:10;"/><text x="465.493" y="255.853" fill="#000" font-size="17" textLength="46.293" font-weight="700" font-family="'Liberation Sans'">Claim</text><text x="458.89" y="275.402" fill="#000" font-size="17" textLength="59.5" font-weight="700" font-family="'Liberation Sans'">Corpus</text></g><!--link VER to P3--><g class="link" data-entity-1="ent0001" data-entity-2="ent0006" id="lnk28" data-source-line="90" data-link-type="dependency"><path d="M939.17,316.287 C930.47,344.457 915.02,385.347 891.89,415.247 C874.33,437.957 853.459,455.088 831.729,469.928" style="stroke:#000;stroke-width:2.5;" fill="none" id="VER-to-P3"/><polygon points="827.6,472.747,837.288,470.975,831.729,469.928,832.776,464.369,827.6,472.747" fill="#000" style="stroke:#000;stroke-width:2.5;stroke-linejoin:miter;stroke-miterlimit:10;"/><text x="929.675" y="391.193" fill="#000" font-size="17" textLength="72.283" font-weight="700" font-family="'Liberation Sans'">Verdict +</text><text x="917.17" y="410.742" fill="#000" font-size="17" textLength="97.293" font-weight="700" font-family="'Liberation Sans'">Source URL</text></g><!--link D1 to P3--><g class="link" data-entity-1="ent0004" data-entity-2="ent0006" id="lnk29" data-source-line="91" data-link-type="dependency"><path d="M455.317,318.728 C492.817,334.998 533.41,353.577 572.89,374.247 C632,405.197 693.277,443.025 734.917,469.635" style="stroke:#000;stroke-width:2.5;" fill="none" id="D1-P3"/><polygon points="450.73,316.737,457.394,323.989,455.317,318.728,460.578,316.65,450.73,316.737" fill="#000" style="stroke:#000;stroke-width:2.5;stroke-linejoin:miter;stroke-miterlimit:10;"/><polygon points="739.13,472.327,733.7,464.111,734.917,469.635,729.392,470.852,739.13,472.327" fill="#000" style="stroke:#000;stroke-width:2.5;stroke-linejoin:miter;stroke-miterlimit:10;"/><text x="644.18" y="391.193" fill="#000" font-size="17" textLength="134.124" font-weight="700" font-family="'Liberation Sans'">Pending Queue /</text><text x="645.114" y="410.742" fill="#000" font-size="17" textLength="132.256" font-weight="700" font-family="'Liberation Sans'">New Verification</text></g><!--link D6 to P3--><g class="link" data-entity-1="ent0005" data-entity-2="ent0006" id="lnk30" data-source-line="92" data-link-type="dependency"><path d="M803.14,308.707 C798.71,348.647 790.562,422.098 785.782,465.148" style="stroke:#000;stroke-width:2.5;" fill="none" id="D6-to-P3"/><polygon points="785.23,470.117,790.199,461.614,785.782,465.148,782.248,460.731,785.23,470.117" fill="#000" style="stroke:#000;stroke-width:2.5;stroke-linejoin:miter;stroke-miterlimit:10;"/><text x="796.33" y="401.193" fill="#000" font-size="17" textLength="92.587" font-weight="700" font-family="'Liberation Sans'">Screenshot</text></g><!--link P3 to P4--><g class="link" data-entity-1="ent0006" data-entity-2="ent0007" id="lnk31" data-source-line="93" data-link-type="dependency"><path d="M780.17,532.447 C777.91,572.397 774.224,637.376 771.934,677.646" style="stroke:#000;stroke-width:2.5;" fill="none" id="P3-to-P4"/><polygon points="771.65,682.637,776.155,673.879,771.934,677.646,768.167,673.425,771.65,682.637" fill="#000" style="stroke:#000;stroke-width:2.5;stroke-linejoin:miter;stroke-miterlimit:10;"/><text x="777.97" y="604.003" fill="#000" font-size="17" textLength="151.141" font-weight="700" font-family="'Liberation Sans'">Quorum Reached /</text><text x="784.573" y="623.552" fill="#000" font-size="17" textLength="137.934" font-weight="700" font-family="'Liberation Sans'">Deadline Expired</text></g><!--reverse link D1 to P4--><g class="link" data-entity-1="ent0004" data-entity-2="ent0007" id="lnk33" data-source-line="95" data-link-type="dependency"><path d="M400.39,323.504 C436.6,373.044 502.95,460.717 569.89,532.057 C623.8,589.497 693.09,649.707 734.35,684.327" style="stroke:#000;stroke-width:2.5;" fill="none" id="D1-backto-P4"/><polygon points="397.44,319.467,399.522,329.094,400.39,323.504,405.98,324.373,397.44,319.467" fill="#000" style="stroke:#000;stroke-width:2.5;stroke-linejoin:miter;stroke-miterlimit:10;"/><text x="581.029" y="497.603" fill="#000" font-size="17" textLength="72.283" font-weight="700" font-family="'Liberation Sans'">Verdict +</text><text x="570.89" y="517.152" fill="#000" font-size="17" textLength="92.562" font-weight="700" font-family="'Liberation Sans'">Confidence</text></g><!--link P4 to D3--><g class="link" data-entity-1="ent0007" data-entity-2="ent0009" id="lnk34" data-source-line="96" data-link-type="dependency"><path d="M886.16,714.557 C922.41,714.557 956.19,714.557 987.98,714.557" style="stroke:#000;stroke-width:2.5;" fill="none" id="P4-to-D3"/><polygon points="992.98,714.557,983.98,710.557,987.98,714.557,983.98,718.557,992.98,714.557" fill="#000" style="stroke:#000;stroke-width:2.5;stroke-linejoin:miter;stroke-miterlimit:10;"/><text x="894.08" y="687.503" fill="#000" font-size="17" textLength="91.632" font-weight="700" font-family="'Liberation Sans'">Consensus</text><text x="920.53" y="707.052" fill="#000" font-size="17" textLength="38.731" font-weight="700" font-family="'Liberation Sans'">Alert</text></g><!--reverse link VER to D3--><g class="link" data-entity-1="ent0001" data-entity-2="ent0009" id="lnk35" data-source-line="97" data-link-type="dependency"><path d="M983.178,320.103 C997.168,336.213 1009.09,352.987 1017.89,374.247 C1063.67,484.797 1064.03,631.527 1062.1,688.997" style="stroke:#000;stroke-width:2.5;" fill="none" id="VER-backto-D3"/><polygon points="979.9,316.327,982.781,325.746,983.178,320.103,988.821,320.5,979.9,316.327" fill="#000" style="stroke:#000;stroke-width:2.5;stroke-linejoin:miter;stroke-miterlimit:10;"/><text x="1074.44" y="497.603" fill="#000" font-size="17" textLength="57.632" font-weight="700" font-family="'Liberation Sans'">Verdict</text><text x="1056.51" y="517.152" fill="#000" font-size="17" textLength="93.492" font-weight="700" font-family="'Liberation Sans'">Notification</text></g><!--link D1 to P5--><g class="link" data-entity-1="ent0004" data-entity-2="ent0011" id="lnk36" data-source-line="100" data-link-type="dependency"><path d="M357.32,319.507 C335.33,375.367 294.67,487.497 279.89,587.057 C263.11,700.157 274.561,831.74 281.421,891.68" style="stroke:#000;stroke-width:2.5;" fill="none" id="D1-to-P5"/><polygon points="281.99,896.647,284.941,887.251,281.421,891.68,276.993,888.161,281.99,896.647" fill="#000" style="stroke:#000;stroke-width:2.5;stroke-linejoin:miter;stroke-miterlimit:10;"/><text x="280.89" y="614.003" fill="#000" font-size="17" textLength="107.694" font-weight="700" font-family="'Liberation Sans'">Settled Claim</text></g><!--link D1 to P6--><g class="link" data-entity-1="ent0004" data-entity-2="ent0010" id="lnk37" data-source-line="101" data-link-type="dependency"><path d="M371.95,319.687 C372.88,398.277 379.69,591.307 421.89,746.057 C438.35,806.387 470.091,867.673 488.701,900.973" style="stroke:#000;stroke-width:2.5;" fill="none" id="D1-to-P6"/><polygon points="491.14,905.337,490.241,895.53,488.701,900.973,483.258,899.432,491.14,905.337" fill="#000" style="stroke:#000;stroke-width:2.5;stroke-linejoin:miter;stroke-miterlimit:10;"/><text x="397.6" y="614.003" fill="#000" font-size="17" textLength="126.604" font-weight="700" font-family="'Liberation Sans'">Claim Statistics</text></g><!--link P5 to VIS--><g class="link" data-entity-1="ent0011" data-entity-2="ent0012" id="lnk38" data-source-line="102" data-link-type="dependency"><path d="M285.89,959.927 C285.89,999.907 285.89,1064.637 285.89,1105.427" style="stroke:#000;stroke-width:2.5;" fill="none" id="P5-to-VIS"/><polygon points="285.89,1110.427,289.89,1101.427,285.89,1105.427,281.89,1101.427,285.89,1110.427" fill="#000" style="stroke:#000;stroke-width:2.5;stroke-linejoin:miter;stroke-miterlimit:10;"/><text x="286.89" y="1031.633" fill="#000" font-size="17" textLength="91.641" font-weight="700" font-family="'Liberation Sans'">Fact-Check</text><text x="286.902" y="1051.182" fill="#000" font-size="17" textLength="91.616" font-weight="700" font-family="'Liberation Sans'">Card (PNG)</text></g><!--link P6 to VIS--><g class="link" data-entity-1="ent0010" data-entity-2="ent0012" id="lnk39" data-source-line="103" data-link-type="dependency"><path d="M483.6,951.257 C459.73,976.787 418.68,1020.047 381.89,1055.687 C362.83,1074.147 344.68,1090.748 326.62,1106.868" style="stroke:#000;stroke-width:2.5;" fill="none" id="P6-to-VIS"/><polygon points="322.89,1110.197,332.268,1107.189,326.62,1106.868,326.941,1101.22,322.89,1110.197" fill="#000" style="stroke:#000;stroke-width:2.5;stroke-linejoin:miter;stroke-miterlimit:10;"/><text x="430.523" y="1031.633" fill="#000" font-size="17" textLength="75.587" font-weight="700" font-family="'Liberation Sans'">Analytics</text><text x="423.92" y="1051.182" fill="#000" font-size="17" textLength="88.793" font-weight="700" font-family="'Liberation Sans'">Dashboard</text></g><!--link P7 to ADM--><g class="link" data-entity-1="ent0013" data-entity-2="ent0016" id="lnk41" data-source-line="106" data-link-type="dependency"><path d="M212.059,1350.055 C231.659,1365.685 251.26,1383.727 267.89,1406.477 C290.88,1437.927 305.579,1475.961 313.919,1501.161" style="stroke:#000;stroke-width:2.5;" fill="none" id="P7-ADM"/><polygon points="208.15,1346.937,212.693,1355.676,212.059,1350.055,217.68,1349.421,208.15,1346.937" fill="#000" style="stroke:#000;stroke-width:2.5;stroke-linejoin:miter;stroke-miterlimit:10;"/><polygon points="315.49,1505.907,316.46,1496.106,313.919,1501.161,308.865,1498.62,315.49,1505.907" fill="#000" style="stroke:#000;stroke-width:2.5;stroke-linejoin:miter;stroke-miterlimit:10;"/><text x="292.73" y="1423.423" fill="#000" font-size="17" textLength="158.661" font-weight="700" font-family="'Liberation Sans'">Moderation Action /</text><text x="330.034" y="1442.972" fill="#000" font-size="17" textLength="84.054" font-weight="700" font-family="'Liberation Sans'">Audit Trail</text></g><!--link P7 to D4--><g class="link" data-entity-1="ent0013" data-entity-2="ent0014" id="lnk42" data-source-line="107" data-link-type="dependency"><path d="M141.708,1352.962 C127.638,1368.962 114.13,1385.997 101.89,1406.477 C83.2,1437.767 69.849,1472.594 61.329,1497.654" style="stroke:#000;stroke-width:2.5;" fill="none" id="P7-D4"/><polygon points="145.01,1349.207,136.063,1353.325,141.708,1352.962,142.071,1358.607,145.01,1349.207" fill="#000" style="stroke:#000;stroke-width:2.5;stroke-linejoin:miter;stroke-miterlimit:10;"/><polygon points="59.72,1502.387,66.404,1495.154,61.329,1497.654,58.83,1492.579,59.72,1502.387" fill="#000" style="stroke:#000;stroke-width:2.5;stroke-linejoin:miter;stroke-miterlimit:10;"/><text x="102.89" y="1423.423" fill="#000" font-size="17" textLength="65.169" font-weight="700" font-family="'Liberation Sans'">Incident</text><text x="103.359" y="1442.972" fill="#000" font-size="17" textLength="64.231" font-weight="700" font-family="'Liberation Sans'">Reports</text></g><!--link P7 to D5--><g class="link" data-entity-1="ent0013" data-entity-2="ent0015" id="lnk43" data-source-line="108" data-link-type="dependency"><path d="M171.89,1351.917 C171.89,1393.067 171.89,1459.477 171.89,1497.087" style="stroke:#000;stroke-width:2.5;" fill="none" id="P7-to-D5"/><polygon points="171.89,1502.087,175.89,1493.087,171.89,1497.087,167.89,1493.087,171.89,1502.087" fill="#000" style="stroke:#000;stroke-width:2.5;stroke-linejoin:miter;stroke-miterlimit:10;"/><text x="172.89" y="1433.423" fill="#000" font-size="17" textLength="91.607" font-weight="700" font-family="'Liberation Sans'">Audit Entry</text></g><!--reverse link D1 to P7--><g class="link" data-entity-1="ent0004" data-entity-2="ent0013" id="lnk44" data-source-line="109" data-link-type="dependency"><path d="M296.505,322.308 C235.585,358.628 161.89,418.517 161.89,500.157 C161.89,500.157 161.89,500.157 161.89,1144.687 C161.89,1194.727 166.07,1252.747 169.03,1287.507" style="stroke:#000;stroke-width:2.5;" fill="none" id="D1-backto-P7"/><polygon points="300.8,319.747,291.021,320.921,296.505,322.308,295.118,327.792,300.8,319.747" fill="#000" style="stroke:#000;stroke-width:2.5;stroke-linejoin:miter;stroke-miterlimit:10;"/><text x="173.747" y="818.003" fill="#000" font-size="17" textLength="79.372" font-weight="700" font-family="'Liberation Sans'">Override /</text><text x="162.89" y="837.552" fill="#000" font-size="17" textLength="101.087" font-weight="700" font-family="'Liberation Sans'">Flag / Expiry</text></g><?plantuml-src XLPjJnj93FwUNs7bf3lGDPG0IQuLEYcNaAeIq3IXt0V2XyckIKRCpkpDIodtwy-UJRB34gv8835-R3-s7pjnZrANmee2d7zMI7-jp7meLCljB8NH9bjRKo1u6p2nvFWWWl8Je_sr87FxKYxH2Y-DXhdGhhqVEvV_8fmSls6CF9P6vOdTIw-mTktlDTMEhTzW5kYV7XoKndehf3_yoBMXpzPWXNvq8CZTlmFtJq2ac9bHeT0El5cXNwCzIb941ooXsqqvQvDZVEsrajUbo1vNrWITZumo5fxMqgSj6rfhdYhJKX6sQRfPo-nHetDmSjHh6dSTw0xscf8ErEPl3ZFXy2zZSxJxCx-0lCLW2seK-ClaZyc7oV0ri2RxuGtZNheppBpGA_M_X1kWjoZNi0PfaeHsX47jzy7tY_IbUI_viV1Y-PDcxp0_RUGMkR-JBwm9cxWGC14PlOgYX4v4maIP9nXBiMBVWqlyZWgwXxmgdTqFNBEctz4wPegQazCsbFHBWRqtHG9isMqle3t3bNGU2RxGjsZbWqJR1k7WzcBM2jMueJqFoq9w62aXYsYTTclZ63t5Wt4ebSo4HrSXJbhvfaPeHqUtq0VVOuei7XbtTtyOeUDk4mfNc4jH6VjrfYkXnGgtHAiey3LWm2hbQGqTcQ8C7k5lbAkrv-f6b16r2njwPqbEahMjdiSfwslZQxALESamjIOF6S9G2_NiPRQ9cz3zX9hlAH7cUNP6QymUOIHiNY5xwHnkfPFUM6hH34NU-QBLSzMSsy_pEk8mBwIEyrheNs4OSkchM8E4zWpvR6u8fsL6F5oQrSRsWi0sD14sbGA6uwk6mEQbr9WAQTm5wDojPPwZlhVSwGuFR7po-faQFZrBddFpf3lSX7sl_HQL_UfrqA3JFJe6eNCw6yVq-S0ITOuLaH2STk6yKp7uaoKD7xSAUx_GT19GbhxDA88HOdh2W6jZ2w6aenMwmH-UeJjnmvMWJw7AXJse0-o1Jvlbg0rzDao2KZ3FB9BorePInOufVF2xRD6FvMbBqcQZnDDDYMTSOheyyJNRIZejcQkCjPnoT5gLdBuJmEyBFJV1abw_pIuh6kSrQeewbtfLxHBNomMbMqOUVKZ2fYNHIsKvOylNO6pWSokoDJMGUqU2LYoSYn-bf4FJZleuxznfmv_DzpjN4cxmCHsjmKYPaCCaw8mV3YDbOho19cNHNZz8Kac6xKfBst6F8zFTsY_qKA4bljmWZZHE6qGb9zlU74DlCuO-Zw4CIz82cE29hdkr3bnEB_O8FTtoV2kCdR5VYt3EvRfuF5ha5EsiV5RExcHGYNGpu61w_OdQCEs_WEsk3_LPkFNIy7bfi1ymQr7lTsD7QC-f7w5aRWEEUKMV8nlOC7QVfrWTZnlwDgQ8n60Zdt6SncUTyGGyhrHrUo8Y0c8hAkSBxUrpFSYOwmk9sf8pfvWeiOBtbKoUs_y1?></g></svg>