<svg xmlns="http://www.w3.org/2000/svg" xmlns:xlink="http://www.w3.org/1999/xlink" contentStyleType="text/css" data-diagram-type="DESCRIPTION" height="2255px" preserveAspectRatio="none" style="width:1701px;height:2255px;background:#FFFFFF;" version="1.1" viewBox="0 0 1701 2255" width="1701px" zoomAndPan="magnify"><?plantuml $version$?><defs/><g><g class="title" data-source-line="56"><text fill="#000000" font-family="'Liberation Sans'" font-size="26" font-weight="700" lengthAdjust="spacing" textLength="502.7852" x="596.0674" y="34.3877">FactStamp - Data Flow Diagram (Level 1)</text></g><!--entity VER--><g class="entity" data-qualified-name="VER" data-source-line="59" id="ent0001"><rect fill="none" height="65.9961" rx="2.5" ry="2.5" style="stroke:#000000;stroke-width:2.5;" width="123.3691" x="285.29" y="57.8975"/><text fill="#000000" font-family="'Liberation Sans'" font-size="20" font-weight="700" lengthAdjust="spacing" textLength="103.3691" x="295.29" y="86.6572">Registered</text><text fill="#000000" font-family="'Liberation Sans'" font-size="20" font-weight="700" lengthAdjust="spacing" textLength="68.9258" x="295.29" y="109.6553">Verifier</text></g><!--entity P1--><g class="entity" data-qualified-name="P1" data-source-line="62" id="ent0002"><ellipse cx="233.9802" cy="305.3535" fill="#F8F8F8" rx="79.3102" ry="30.4661" style="stroke:#000000;stroke-width:2.5;"/><text fill="#000000" font-family="'Liberation Sans'" font-size="19" font-weight="700" lengthAdjust="spacing" textLength="26.4126" x="220.7739" y="296.65">1.0</text><text fill="#000000" font-family="'Liberation Sans'" font-size="19" font-weight="700" lengthAdjust="spacing" textLength="121.4033" x="173.2786" y="318.4982">Submit Claim</text></g><!--entity D2--><g class="entity" data-qualified-name="D2" data-source-line="64" id="ent0003"><path d="M407.15,289.9375 C407.15,279.9375 460.9808,279.9375 460.9808,279.9375 C460.9808,279.9375 514.8116,279.9375 514.8116,289.9375 L514.8116,320.7856 C514.8116,330.7856 460.9808,330.7856 460.9808,330.7856 C460.9808,330.7856 407.15,330.7856 407.15,320.7856 L407.15,289.9375" fill="#F8F8F8" style="stroke:#000000;stroke-width:0.5;"/><path d="M407.15,289.9375 C407.15,299.9375 460.9808,299.9375 460.9808,299.9375 C460.9808,299.9375 514.8116,299.9375 514.8116,289.9375" fill="none" style="stroke:#000000;stroke-width:0.5;"/><text fill="#000000" font-family="'Liberation Sans'" font-size="19" font-weight="700" lengthAdjust="spacing" textLength="87.6616" x="417.15" y="321.7592">D2  Users</text></g><!--entity P2--><g class="entity" data-qualified-name="P2" data-source-line="65" id="ent0004"><ellipse cx="108.9794" cy="523.1778" fill="#F8F8F8" rx="102.9794" ry="30.4004" style="stroke:#000000;stroke-width:2.5;"/><text fill="#000000" font-family="'Liberation Sans'" font-size="19" font-weight="700" lengthAdjust="spacing" textLength="26.4126" x="95.7731" y="514.3657">2.0</text><text fill="#000000" font-family="'Liberation Sans'" font-size="19" font-weight="700" lengthAdjust="spacing" textLength="159.4404" x="29.2592" y="536.2138">Detect Duplicates</text></g><!--entity D1--><g class="entity" data-qualified-name="D1" data-source-line="66" id="ent0005"><path d="M357.36,496.8275 C357.36,486.8275 435.9799,486.8275 435.9799,486.8275 C435.9799,486.8275 514.5997,486.8275 514.5997,496.8275 L514.5997,549.5238 C514.5997,559.5238 435.9799,559.5238 435.9799,559.5238 C435.9799,559.5238 357.36,559.5238 357.36,549.5238 L357.36,496.8275" fill="#F8F8F8" style="stroke:#000000;stroke-width:0.5;"/><path d="M357.36,496.8275 C357.36,506.8275 435.9799,506.8275 435.9799,506.8275 C435.9799,506.8275 514.5997,506.8275 514.5997,496.8275" fill="none" style="stroke:#000000;stroke-width:0.5;"/><text fill="#000000" font-family="'Liberation Sans'" font-size="19" font-weight="700" lengthAdjust="spacing" textLength="97.1523" x="367.36" y="528.6492">D1  Claims</text><text fill="#000000" font-family="'Liberation Sans'" font-size="19" font-weight="700" lengthAdjust="spacing" textLength="137.2397" x="367.36" y="550.4974">(verifications[])</text></g><!--entity P3--><g class="entity" data-qualified-name="P3" data-source-line="67" id="ent0006"><ellipse cx="435.9835" cy="754.6047" fill="#F8F8F8" rx="108.2335" ry="44.0873" style="stroke:#000000;stroke-width:2.5;"/><text fill="#000000" font-family="'Liberation Sans'" font-size="19" font-weight="700" lengthAdjust="spacing" textLength="26.4126" x="422.7772" y="732.1904">3.0</text><text fill="#000000" font-family="'Liberation Sans'" font-size="19" font-weight="700" lengthAdjust="spacing" textLength="70.7397" x="400.6136" y="754.0386">Manage</text><text fill="#000000" font-family="'Liberation Sans'" font-size="19" font-weight="700" lengthAdjust="spacing" textLength="167.8735" x="352.0467" y="775.8867">Verification Queue</text></g><!--entity P4--><g class="entity" data-qualified-name="P4" data-source-line="68" id="ent0007"><ellipse cx="435.9755" cy="988.4979" fill="#F8F8F8" rx="97.5455" ry="38.8004" style="stroke:#000000;stroke-width:2.5;"/><text fill="#000000" font-family="'Liberation Sans'" font-size="19" font-weight="700" lengthAdjust="spacing" textLength="26.4126" x="422.7692" y="971.3966">4.0</text><text fill="#000000" font-family="'Liberation Sans'" font-size="19" font-weight="700" lengthAdjust="spacing" textLength="173.0967" x="349.4271" y="993.2447">Compute Weighted</text><text fill="#000000" font-family="'Liberation Sans'" font-size="19" font-weight="700" lengthAdjust="spacing" textLength="102.4126" x="384.7692" y="1015.0929">Consensus</text></g><!--entity D3--><g class="entity" data-qualified-name="D3" data-source-line="69" id="ent0008"><path d="M351.03,1168.2975 C351.03,1158.2975 435.9817,1158.2975 435.9817,1158.2975 C435.9817,1158.2975 520.9333,1158.2975 520.9333,1168.2975 L520.9333,1199.1456 C520.9333,1209.1456 435.9817,1209.1456 435.9817,1209.1456 C435.9817,1209.1456 351.03,1209.1456 351.03,1199.1456 L351.03,1168.2975" fill="#F8F8F8" style="stroke:#000000;stroke-width:0.5;"/><path d="M351.03,1168.2975 C351.03,1178.2975 435.9817,1178.2975 435.9817,1178.2975 C435.9817,1178.2975 520.9333,1178.2975 520.9333,1168.2975" fill="none" style="stroke:#000000;stroke-width:0.5;"/><text fill="#000000" font-family="'Liberation Sans'" font-size="19" font-weight="700" lengthAdjust="spacing" textLength="149.9033" x="361.03" y="1200.1192">D3  Notifications</text></g><!--entity P5--><g class="entity" data-qualified-name="P5" data-source-line="70" id="ent0009"><ellipse cx="435.9756" cy="1384.2636" fill="#F8F8F8" rx="97.7156" ry="44.1162" style="stroke:#000000;stroke-width:2.5;"/><text fill="#000000" font-family="'Liberation Sans'" font-size="19" font-weight="700" lengthAdjust="spacing" textLength="26.4126" x="422.7693" y="1361.8972">5.0</text><text fill="#000000" font-family="'Liberation Sans'" font-size="19" font-weight="700" lengthAdjust="spacing" textLength="82.3735" x="394.7889" y="1383.7454">Generate</text><text fill="#000000" font-family="'Liberation Sans'" font-size="19" font-weight="700" lengthAdjust="spacing" textLength="150.9888" x="360.4813" y="1405.5935">Fact-Check Card</text></g><!--entity P6--><g class="entity" data-qualified-name="P6" data-source-line="71" id="ent0010"><ellipse cx="353.977" cy="1569.7811" fill="#F8F8F8" rx="106.927" ry="30.3936" style="stroke:#000000;stroke-width:2.5;"/><text fill="#000000" font-family="'Liberation Sans'" font-size="19" font-weight="700" lengthAdjust="spacing" textLength="26.4126" x="340.7707" y="1560.9577">6.0</text><text fill="#000000" font-family="'Liberation Sans'" font-size="19" font-weight="700" lengthAdjust="spacing" textLength="165.7769" x="271.0886" y="1582.8058">Produce Analytics</text></g><!--entity VIS--><g class="entity" data-qualified-name="VIS" data-source-line="72" id="ent0011"><rect fill="none" height="65.9961" rx="2.5" ry="2.5" style="stroke:#000000;stroke-width:2.5;" width="133.3398" x="321.31" y="1751.1675"/><text fill="#000000" font-family="'Liberation Sans'" font-size="20" font-weight="700" lengthAdjust="spacing" textLength="62.2363" x="331.31" y="1779.9272">Visitor</text><text fill="#000000" font-family="'Liberation Sans'" font-size="20" font-weight="700" lengthAdjust="spacing" textLength="113.3398" x="331.31" y="1802.9253">(Read-Only)</text></g><!--entity P7--><g class="entity" data-qualified-name="P7" data-source-line="73" id="ent0012"><ellipse cx="280.9844" cy="1988.186" fill="#F8F8F8" rx="59.0644" ry="40.0286" style="stroke:#000000;stroke-width:2.5;"/><text fill="#000000" font-family="'Liberation Sans'" font-size="19" font-weight="700" lengthAdjust="spacing" textLength="26.4126" x="267.7781" y="1970.5476">7.0</text><text fill="#000000" font-family="'Liberation Sans'" font-size="19" font-weight="700" lengthAdjust="spacing" textLength="99.2397" x="231.3645" y="1992.3957">Administer</text><text fill="#000000" font-family="'Liberation Sans'" font-size="19" font-weight="700" lengthAdjust="spacing" textLength="67.5391" x="247.2148" y="2014.2439">&amp; Audit</text></g><!--entity D4--><g class="entity" data-qualified-name="D4" data-source-line="74" id="ent0013"><path d="M502.66,1972.7675 C502.66,1962.7675 565.9769,1962.7675 565.9769,1962.7675 C565.9769,1962.7675 629.2938,1962.7675 629.2938,1972.7675 L629.2938,2003.6156 C629.2938,2013.6156 565.9769,2013.6156 565.9769,2013.6156 C565.9769,2013.6156 502.66,2013.6156 502.66,2003.6156 L502.66,1972.7675" fill="#F8F8F8" style="stroke:#000000;stroke-width:0.5;"/><path d="M502.66,1972.7675 C502.66,1982.7675 565.9769,1982.7675 565.9769,1982.7675 C565.9769,1982.7675 629.2938,1982.7675 629.2938,1972.7675" fill="none" style="stroke:#000000;stroke-width:0.5;"/><text fill="#000000" font-family="'Liberation Sans'" font-size="19" font-weight="700" lengthAdjust="spacing" textLength="106.6338" x="512.66" y="2004.5892">D4  Reports</text></g><!--entity ADM--><g class="entity" data-qualified-name="ADM" data-source-line="75" id="ent0014"><rect fill="none" height="42.998" rx="2.5" ry="2.5" style="stroke:#000000;stroke-width:2.5;" width="151.123" x="65.42" y="2183.1475"/><text fill="#000000" font-family="'Liberation Sans'" font-size="20" font-weight="700" lengthAdjust="spacing" textLength="131.123" x="75.42" y="2211.9072">Administrator</text></g><!--entity D5--><g class="entity" data-qualified-name="D5" data-source-line="76" id="ent0015"><path d="M344.96,2189.2175 C344.96,2179.2175 421.9842,2179.2175 421.9842,2179.2175 C421.9842,2179.2175 499.0083,2179.2175 499.0083,2189.2175 L499.0083,2220.0656 C499.0083,2230.0656 421.9842,2230.0656 421.9842,2230.0656 C421.9842,2230.0656 344.96,2230.0656 344.96,2220.0656 L344.96,2189.2175" fill="#F8F8F8" style="stroke:#000000;stroke-width:0.5;"/><path d="M344.96,2189.2175 C344.96,2199.2175 421.9842,2199.2175 421.9842,2199.2175 C421.9842,2199.2175 499.0083,2199.2175 499.0083,2189.2175" fill="none" style="stroke:#000000;stroke-width:0.5;"/><text fill="#000000" font-family="'Liberation Sans'" font-size="19" font-weight="700" lengthAdjust="spacing" textLength="134.0483" x="354.96" y="2221.0392">D5  Audit Logs</text></g><!--link VER to D2--><!--link D3 to P5--><!--link P5 to P6--><!--link VIS to D4--><!--link P7 to ADM--><!--link ADM to P7--><g class="link" data-entity-1="ent0014" data-entity-2="ent0012" data-link-type="dependency" data-source-line="119" id="lnk44"><path d="M216.88,2196.6675 C306.58,2186.6775 447.78,2164.8375 479.98,2124.2175 C526.47,2065.5775 415.1103,2024.1859 341.2703,2003.8359" fill="none" id="ADM-to-P7" style="stroke:#000000;stroke-width:2.5;"/><polygon fill="#000000" points="336.45,2002.5075,344.0638,2008.7549,341.2703,2003.8359,346.1893,2001.0424,336.45,2002.5075" style="stroke:#000000;stroke-width:2.5;stroke-linejoin:miter;stroke-miterlimit:10;"/><text fill="#000000" font-family="'Liberation Sans'" font-size="17" font-weight="700" lengthAdjust="spacing" textLength="119.9629" x="491.58" y="2100.1633">24. Moderation</text><text fill="#000000" font-family="'Liberation Sans'" font-size="17" font-weight="700" lengthAdjust="spacing" textLength="52.8843" x="536.9272" y="2119.7116">Action</text></g><!--link VER to P1--><g class="link" data-entity-1="ent0001" data-entity-2="ent0002" data-link-type="dependency" data-source-line="86" id="lnk21"><path d="M329.82,124.1675 C307.96,165.2575 272.8579,231.253 251.8279,270.793" fill="none" id="VER-to-P1" style="stroke:#000000;stroke-width:2.5;"/><polygon fill="#000000" points="249.48,275.2075,257.2378,269.1398,251.8279,270.793,250.1747,265.3831,249.48,275.2075" style="stroke:#000000;stroke-width:2.5;stroke-linejoin:miter;stroke-miterlimit:10;"/><text fill="#000000" font-family="'Liberation Sans'" font-size="17" font-weight="700" lengthAdjust="spacing" textLength="114.3184" x="301.6" y="195.8433">1. Claim Text /</text><text fill="#000000" font-family="'Liberation Sans'" font-size="17" font-weight="700" lengthAdjust="spacing" textLength="92.5869" x="321.912" y="215.3916">Screenshot</text></g><!--link P1 to VER--><g class="link" data-entity-1="ent0002" data-entity-2="ent0001" data-link-type="dependency" data-source-line="88" id="lnk23"><path d="M305.25,291.6775 C346.34,280.3175 394.72,259.0975 419.98,219.8975 C440.41,188.1775 416.6472,154.0108 389.7872,127.7808" fill="none" id="P1-to-VER" style="stroke:#000000;stroke-width:2.5;"/><polygon fill="#000000" points="386.21,124.2875,389.8544,133.4372,389.7872,127.7808,395.4437,127.7137,386.21,124.2875" style="stroke:#000000;stroke-width:2.5;stroke-linejoin:miter;stroke-miterlimit:10;"/><text fill="#000000" font-family="'Liberation Sans'" font-size="17" font-weight="700" lengthAdjust="spacing" textLength="89.7563" x="467.2838" y="195.8433">3. Receipt /</text><text fill="#000000" font-family="'Liberation Sans'" font-size="17" font-weight="700" lengthAdjust="spacing" textLength="149.2314" x="446.9926" y="215.3916">Duplicate Warning</text></g><!--link D2 to P1--><g class="link" data-entity-1="ent0003" data-entity-2="ent0002" data-link-type="dependency" data-source-line="87" id="lnk22"><path d="M406.75,305.3575 C378.92,305.3575 349.48,305.3575 318.69,305.3575" fill="none" id="D2-to-P1" style="stroke:#000000;stroke-width:2.5;"/><polygon fill="#000000" points="313.69,305.3575,322.69,309.3575,318.69,305.3575,322.69,301.3575,313.69,305.3575" style="stroke:#000000;stroke-width:2.5;stroke-linejoin:miter;stroke-miterlimit:10;"/><text fill="#000000" font-family="'Liberation Sans'" font-size="17" font-weight="700" lengthAdjust="spacing" textLength="77.4878" x="321.72" y="278.3033">2. Verifier</text><text fill="#000000" font-family="'Liberation Sans'" font-size="17" font-weight="700" lengthAdjust="spacing" textLength="52.9009" x="343.4597" y="297.8516">Profile</text></g><!--link P1 to P2--><g class="link" data-entity-1="ent0002" data-entity-2="ent0004" data-link-type="dependency" data-source-line="89" id="lnk24"><path d="M217.12,335.4675 C193.26,376.6575 152.4063,447.201 128.4763,488.511" fill="none" id="P1-to-P2" style="stroke:#000000;stroke-width:2.5;"/><polygon fill="#000000" points="125.97,492.8375,133.9425,487.0547,128.4763,488.511,127.0201,483.0447,125.97,492.8375" style="stroke:#000000;stroke-width:2.5;stroke-linejoin:miter;stroke-miterlimit:10;"/><text fill="#000000" font-family="'Liberation Sans'" font-size="17" font-weight="700" lengthAdjust="spacing" textLength="151.1655" x="183.68" y="417.7733">4. Normalised Text</text></g><!--link P2 to P1--><g class="link" data-entity-1="ent0004" data-entity-2="ent0002" data-link-type="dependency" data-source-line="94" id="lnk27"><path d="M198.45,507.8775 C309.77,489.1875 487.69,455.9775 506.98,431.8275 C518.35,417.5875 517.79,405.4975 506.98,390.8275 C482.91,358.1875 383.1381,333.7419 310.6281,319.6419" fill="none" id="P2-to-P1" style="stroke:#000000;stroke-width:2.5;"/><polygon fill="#000000" points="305.72,318.6875,313.791,324.3318,310.6281,319.6419,315.318,316.4789,305.72,318.6875" style="stroke:#000000;stroke-width:2.5;stroke-linejoin:miter;stroke-miterlimit:10;"/><text fill="#000000" font-family="'Liberation Sans'" font-size="17" font-weight="700" lengthAdjust="spacing" textLength="145.5625" x="516.3" y="417.7733">7. Jaccard &gt;= 0.75</text></g><!--link P1 to D1--><g class="link" data-entity-1="ent0002" data-entity-2="ent0005" data-link-type="dependency" data-source-line="90" id="lnk25"><path d="M270.93,332.3875 C292,348.0975 318.25,369.2175 338.98,390.8275 C367.54,420.5875 392.1996,454.7851 410.5496,482.3551" fill="none" id="P1-to-D1" style="stroke:#000000;stroke-width:2.5;"/><polygon fill="#000000" points="413.32,486.5175,411.6632,476.809,410.5496,482.3551,405.0035,481.2415,413.32,486.5175" style="stroke:#000000;stroke-width:2.5;stroke-linejoin:miter;stroke-miterlimit:10;"/><text fill="#000000" font-family="'Liberation Sans'" font-size="17" font-weight="700" lengthAdjust="spacing" textLength="104.8721" x="374.95" y="407.7733">5. New Claim</text><text fill="#000000" font-family="'Liberation Sans'" font-size="17" font-weight="700" lengthAdjust="spacing" textLength="83.1157" x="395.2745" y="427.3216">Document</text></g><!--link D1 to P2--><g class="link" data-entity-1="ent0005" data-entity-2="ent0004" data-link-type="dependency" data-source-line="93" id="lnk26"><path d="M357.03,523.1775 C313.61,523.1775 264.22,523.1775 217.44,523.1775" fill="none" id="D1-to-P2" style="stroke:#000000;stroke-width:2.5;"/><polygon fill="#000000" points="212.44,523.1775,221.44,527.1775,217.44,523.1775,221.44,519.1775,212.44,523.1775" style="stroke:#000000;stroke-width:2.5;stroke-linejoin:miter;stroke-miterlimit:10;"/><text fill="#000000" font-family="'Liberation Sans'" font-size="17" font-weight="700" lengthAdjust="spacing" textLength="129.4175" x="220.16" y="516.1233">6. Claim Corpus</text></g><!--link D1 to P3--><g class="link" data-entity-1="ent0005" data-entity-2="ent0006" data-link-type="dependency" data-source-line="97" id="lnk28"><path d="M435.98,559.7675 C435.98,600.2975 435.98,661.5175 435.98,705.0875" fill="none" id="D1-to-P3" style="stroke:#000000;stroke-width:2.5;"/><polygon fill="#000000" points="435.98,710.0875,439.98,701.0875,435.98,705.0875,431.98,701.0875,435.98,710.0875" style="stroke:#000000;stroke-width:2.5;stroke-linejoin:miter;stroke-miterlimit:10;"/><text fill="#000000" font-family="'Liberation Sans'" font-size="17" font-weight="700" lengthAdjust="spacing" textLength="143.5786" x="436.98" y="641.4733">8. Pending Queue</text></g><!--link P3 to D1--><g class="link" data-entity-1="ent0006" data-entity-2="ent0005" data-link-type="dependency" data-source-line="99" id="lnk30"><path d="M510.7,722.3375 C559.07,697.1375 608.78,658.7275 583.98,614.5275 C568.73,587.3475 546.0454,569.7046 519.1554,555.5646" fill="none" id="P3-to-D1" style="stroke:#000000;stroke-width:2.5;"/><polygon fill="#000000" points="514.73,553.2375,520.8341,560.9666,519.1554,555.5646,524.5575,553.8859,514.73,553.2375" style="stroke:#000000;stroke-width:2.5;stroke-linejoin:miter;stroke-miterlimit:10;"/><text fill="#000000" font-family="'Liberation Sans'" font-size="17" font-weight="700" lengthAdjust="spacing" textLength="112.3926" x="602.9172" y="631.4733">10. Append to</text><text fill="#000000" font-family="'Liberation Sans'" font-size="17" font-weight="700" lengthAdjust="spacing" textLength="111.4712" x="615.1857" y="651.0216">verifications[]</text></g><!--link VER to P3--><g class="link" data-entity-1="ent0001" data-entity-2="ent0006" data-link-type="dependency" data-source-line="98" id="lnk29"><path d="M387.41,124.2175 C420.08,150.2275 467.31,187.6475 508.98,219.8975 C576.45,272.1075 589.67,290.5475 661.98,335.8275 C781.47,410.6475 1304.39,550.8075 1209.98,655.5275 C1130.69,743.4675 797.25,694.1075 679.98,710.5275 C631.41,717.3175 582.6375,725.7029 538.0075,733.9129" fill="none" id="VER-to-P3" style="stroke:#000000;stroke-width:2.5;"/><polygon fill="#000000" points="533.09,734.8175,542.6652,737.1232,538.0075,733.9129,541.2178,729.2552,533.09,734.8175" style="stroke:#000000;stroke-width:2.5;stroke-linejoin:miter;stroke-miterlimit:10;"/><text fill="#000000" font-family="'Liberation Sans'" font-size="17" font-weight="700" lengthAdjust="spacing" textLength="91.1841" x="895.881" y="407.7733">9. Verdict +</text><text fill="#000000" font-family="'Liberation Sans'" font-size="17" font-weight="700" lengthAdjust="spacing" textLength="97.2935" x="902.2726" y="427.3216">Source URL</text></g><!--link P3 to P4--><g class="link" data-entity-1="ent0006" data-entity-2="ent0007" data-link-type="dependency" data-source-line="100" id="lnk31"><path d="M435.98,798.9575 C435.98,842.2175 435.98,903.0375 435.98,944.3575" fill="none" id="P3-to-P4" style="stroke:#000000;stroke-width:2.5;"/><polygon fill="#000000" points="435.98,949.3575,439.98,940.3575,435.98,944.3575,431.98,940.3575,435.98,949.3575" style="stroke:#000000;stroke-width:2.5;stroke-linejoin:miter;stroke-miterlimit:10;"/><text fill="#000000" font-family="'Liberation Sans'" font-size="17" font-weight="700" lengthAdjust="spacing" textLength="161.5581" x="436.98" y="870.6433">11. 3rd Verification /</text><text fill="#000000" font-family="'Liberation Sans'" font-size="17" font-weight="700" lengthAdjust="spacing" textLength="137.9341" x="460.5999" y="890.1916">Deadline Expired</text></g><!--link D2 to P4--><g class="link" data-entity-1="ent0003" data-entity-2="ent0007" data-link-type="dependency" data-source-line="103" id="lnk32"><path d="M515.22,322.6375 C557.96,336.8875 617.97,360.1075 664.98,390.8275 C785.15,469.3575 811.2,500.1675 897.98,614.5275 C910.48,630.9975 908.58,638.2675 919.98,655.5275 C937.23,681.6475 953.62,680.9875 963.98,710.5275 C976.95,747.5075 986.55,766.6575 963.98,798.6975 C937.12,836.8275 659.4271,922.2474 519.0571,963.5074" fill="none" id="D2-to-P4" style="stroke:#000000;stroke-width:2.5;"/><polygon fill="#000000" points="514.26,964.9175,524.0227,966.217,519.0571,963.5074,521.7667,958.5417,514.26,964.9175" style="stroke:#000000;stroke-width:2.5;stroke-linejoin:miter;stroke-miterlimit:10;"/><text fill="#000000" font-family="'Liberation Sans'" font-size="17" font-weight="700" lengthAdjust="spacing" textLength="117.124" x="920.98" y="631.4733">12. Reputation</text><text fill="#000000" font-family="'Liberation Sans'" font-size="17" font-weight="700" lengthAdjust="spacing" textLength="56.7026" x="962.9986" y="651.0216">Scores</text></g><!--link P4 to D2--><g class="link" data-entity-1="ent0007" data-entity-2="ent0003" data-link-type="dependency" data-source-line="104" id="lnk33"><path d="M513.74,964.8475 C532.13,959.6875 551.71,954.3575 569.98,949.6975 C676.44,922.5575 708.47,934.2175 810.98,894.6975 C813.52,893.7175 980.19,800.7475 981.98,798.6975 C1026.83,747.1475 1025.32,722.6675 1037.98,655.5275 C1072.96,470.0775 874.87,475.0175 705.98,390.8275 C643.16,359.5175 570.7409,336.3594 519.9809,321.9894" fill="none" id="P4-to-D2" style="stroke:#000000;stroke-width:2.5;"/><polygon fill="#000000" points="515.17,320.6275,522.7401,326.9277,519.9809,321.9894,524.9192,319.2302,515.17,320.6275" style="stroke:#000000;stroke-width:2.5;stroke-linejoin:miter;stroke-miterlimit:10;"/><text fill="#000000" font-family="'Liberation Sans'" font-size="17" font-weight="700" lengthAdjust="spacing" textLength="163.4175" x="1043.03" y="641.4733">13. Reputation Delta</text></g><!--link P4 to D1--><g class="link" data-entity-1="ent0007" data-entity-2="ent0005" data-link-type="dependency" data-source-line="105" id="lnk34"><path d="M504.03,960.2575 C536.6,944.7075 574.41,922.6875 601.98,894.6975 C725.24,769.5575 763.21,658.0975 730.98,614.5275 C705.1,579.5375 598.1203,553.5003 519.8403,538.4703" fill="none" id="P4-to-D1" style="stroke:#000000;stroke-width:2.5;"/><polygon fill="#000000" points="514.93,537.5275,523.0143,543.1527,519.8403,538.4703,524.5228,535.2962,514.93,537.5275" style="stroke:#000000;stroke-width:2.5;stroke-linejoin:miter;stroke-miterlimit:10;"/><text fill="#000000" font-family="'Liberation Sans'" font-size="17" font-weight="700" lengthAdjust="spacing" textLength="197.9238" x="746.5121" y="741.5533">14. Verdict + Confidence</text><text fill="#000000" font-family="'Liberation Sans'" font-size="17" font-weight="700" lengthAdjust="spacing" textLength="205.5522" x="754.5057" y="761.1016">C = 0.40A + 0.30R + 0.30S</text><text fill="#000000" font-family="'Liberation Sans'" font-size="17" font-weight="700" lengthAdjust="spacing" textLength="196.4629" x="759.0504" y="780.6499">(CONTESTED on expiry)</text></g><!--link P4 to D3--><g class="link" data-entity-1="ent0007" data-entity-2="ent0008" data-link-type="dependency" data-source-line="106" id="lnk35"><path d="M435.98,1027.6775 C435.98,1066.2775 435.98,1119.8175 435.98,1152.8175" fill="none" id="P4-to-D3" style="stroke:#000000;stroke-width:2.5;"/><polygon fill="#000000" points="435.98,1157.8175,439.98,1148.8175,435.98,1152.8175,431.98,1148.8175,435.98,1157.8175" style="stroke:#000000;stroke-width:2.5;stroke-linejoin:miter;stroke-miterlimit:10;"/><text fill="#000000" font-family="'Liberation Sans'" font-size="17" font-weight="700" lengthAdjust="spacing" textLength="163.4424" x="436.98" y="1099.2433">15. Consensus Alert</text></g><!--link D3 to VER--><g class="link" data-entity-1="ent0008" data-entity-2="ent0001" data-link-type="dependency" data-source-line="107" id="lnk36"><path d="M521.29,1174.6875 C632.36,1163.0075 819.25,1138.7675 877.98,1103.2975 C1686.92,614.7975 1319.82,842.0775 1226.98,614.5275 C1086.19,269.4375 590.2497,139.984 413.8797,104.114" fill="none" id="D3-to-VER" style="stroke:#000000;stroke-width:2.5;"/><polygon fill="#000000" points="408.98,103.1175,417.0023,108.8309,413.8797,104.114,418.5966,100.9914,408.98,103.1175" style="stroke:#000000;stroke-width:2.5;stroke-linejoin:miter;stroke-miterlimit:10;"/><text fill="#000000" font-family="'Liberation Sans'" font-size="17" font-weight="700" lengthAdjust="spacing" textLength="85.9878" x="1265.3298" y="631.4733">16. Verdict</text><text fill="#000000" font-family="'Liberation Sans'" font-size="17" font-weight="700" lengthAdjust="spacing" textLength="93.4917" x="1273.3857" y="651.0216">Notification</text></g><!--link D1 to P5--><g class="link" data-entity-1="ent0005" data-entity-2="ent0009" data-link-type="dependency" data-source-line="110" id="lnk37"><path d="M514.82,554.4875 C541.21,568.6675 567.96,588.3275 583.98,614.5275 C640.7,707.2575 633,998.5375 603.98,1103.2975 C590.02,1153.6875 511.7358,1272.7357 467.5258,1337.6057" fill="none" id="D1-to-P5" style="stroke:#000000;stroke-width:2.5;"/><polygon fill="#000000" points="464.71,1341.7375,473.0839,1336.553,467.5258,1337.6057,466.4731,1332.0477,464.71,1341.7375" style="stroke:#000000;stroke-width:2.5;stroke-linejoin:miter;stroke-miterlimit:10;"/><text fill="#000000" font-family="'Liberation Sans'" font-size="17" font-weight="700" lengthAdjust="spacing" textLength="154.959" x="625.18" y="984.9433">17. Resolved Claim</text><text fill="#000000" font-family="'Liberation Sans'" font-size="17" font-weight="700" lengthAdjust="spacing" textLength="107.2129" x="660.8609" y="1004.4916">+ Confidence</text></g><!--link D1 to P6--><g class="link" data-entity-1="ent0005" data-entity-2="ent0010" data-link-type="dependency" data-source-line="111" id="lnk38"><path d="M515.05,553.0275 C546.05,567.5575 579.9,587.8575 603.98,614.5275 C663.32,680.2475 637.92,720.7775 679.98,798.6975 C718.57,870.1875 759.03,872.0675 782.98,949.6975 C793.15,982.6575 797.37,995.9575 782.98,1027.2975 C767.33,1061.3775 745.69,1055.9775 718.98,1082.2975 C642.09,1158.0575 601.39,1165.3175 557.98,1264.1475 C528.47,1331.3275 577.12,1364.5175 540.98,1428.3775 C511.19,1481.0275 457.1397,1517.5906 413.4697,1540.9306" fill="none" id="D1-to-P6" style="stroke:#000000;stroke-width:2.5;"/><polygon fill="#000000" points="409.06,1543.2875,418.8829,1542.5729,413.4697,1540.9306,415.112,1535.5174,409.06,1543.2875" style="stroke:#000000;stroke-width:2.5;stroke-linejoin:miter;stroke-miterlimit:10;"/><text fill="#000000" font-family="'Liberation Sans'" font-size="17" font-weight="700" lengthAdjust="spacing" textLength="154.959" x="719.98" y="1099.2433">18. Claim Statistics</text></g><!--link P5 to VIS--><g class="link" data-entity-1="ent0009" data-entity-2="ent0011" data-link-type="dependency" data-source-line="112" id="lnk39"><path d="M455.5,1427.8675 C480.81,1489.5575 517.42,1606.2275 478.98,1696.1675 C469.79,1717.6675 456.1971,1733.1679 439.0471,1747.6779" fill="none" id="P5-to-VIS" style="stroke:#000000;stroke-width:2.5;"/><polygon fill="#000000" points="435.23,1750.9075,444.6844,1748.148,439.0471,1747.6779,439.5172,1742.0407,435.23,1750.9075" style="stroke:#000000;stroke-width:2.5;stroke-linejoin:miter;stroke-miterlimit:10;"/><text fill="#000000" font-family="'Liberation Sans'" font-size="17" font-weight="700" lengthAdjust="spacing" textLength="163.4507" x="496.58" y="1566.2233">19. Fact-Check Card</text><text fill="#000000" font-family="'Liberation Sans'" font-size="17" font-weight="700" lengthAdjust="spacing" textLength="110.5415" x="534.8425" y="1585.7716">(1080px PNG)</text></g><!--link P6 to VIS--><g class="link" data-entity-1="ent0010" data-entity-2="ent0011" data-link-type="dependency" data-source-line="113" id="lnk40"><path d="M355.55,1600.5875 C357.2,1626.0975 360.36,1663.7375 365.98,1696.1675 C369.14,1714.4375 372.8084,1729.6925 377.2284,1745.9525" fill="none" id="P6-to-VIS" style="stroke:#000000;stroke-width:2.5;"/><polygon fill="#000000" points="378.54,1750.7775,380.0391,1741.0434,377.2284,1745.9525,372.3192,1743.1419,378.54,1750.7775" style="stroke:#000000;stroke-width:2.5;stroke-linejoin:miter;stroke-miterlimit:10;"/><text fill="#000000" font-family="'Liberation Sans'" font-size="17" font-weight="700" lengthAdjust="spacing" textLength="103.9424" x="371.2134" y="1672.1133">20. Analytics</text><text fill="#000000" font-family="'Liberation Sans'" font-size="17" font-weight="700" lengthAdjust="spacing" textLength="88.7935" x="390.5957" y="1691.6616">Dashboard</text></g><!--link VIS to P7--><g class="link" data-entity-1="ent0011" data-entity-2="ent0012" data-link-type="dependency" data-source-line="116" id="lnk41"><path d="M370.79,1817.6275 C351.65,1853.7575 323.1107,1907.6492 303.0107,1945.5892" fill="none" id="VIS-to-P7" style="stroke:#000000;stroke-width:2.5;"/><polygon fill="#000000" points="300.67,1950.0075,308.4179,1943.9272,303.0107,1945.5892,301.3487,1940.182,300.67,1950.0075" style="stroke:#000000;stroke-width:2.5;stroke-linejoin:miter;stroke-miterlimit:10;"/><text fill="#000000" font-family="'Liberation Sans'" font-size="17" font-weight="700" lengthAdjust="spacing" textLength="139.8101" x="341.89" y="1889.1033">21. Abuse Report</text></g><!--link P7 to D4--><g class="link" data-entity-1="ent0012" data-entity-2="ent0013" data-link-type="dependency" data-source-line="117" id="lnk42"><path d="M340.38,1988.1875 C387.69,1988.1875 448.78,1988.1875 497.2,1988.1875" fill="none" id="P7-to-D4" style="stroke:#000000;stroke-width:2.5;"/><polygon fill="#000000" points="502.2,1988.1875,493.2,1984.1875,497.2,1988.1875,493.2,1992.1875,502.2,1988.1875" style="stroke:#000000;stroke-width:2.5;stroke-linejoin:miter;stroke-miterlimit:10;"/><text fill="#000000" font-family="'Liberation Sans'" font-size="17" font-weight="700" lengthAdjust="spacing" textLength="146.4258" x="348.35" y="1981.1333">22. Report Record</text></g><!--link D4 to P7--><g class="link" data-entity-1="ent0013" data-entity-2="ent0012" data-link-type="dependency" data-source-line="118" id="lnk43"><path d="M502.43,2010.2575 C499.05,2011.0075 495.67,2011.6675 492.35,2012.1875 C461.19,2017.1375 381.47,2017.4175 350.35,2012.1875 C344.57,2011.2175 343.4471,2011.1574 337.5871,2009.5274" fill="none" id="D4-to-P7" style="stroke:#000000;stroke-width:2.5;"/><polygon fill="#000000" points="332.77,2008.1875,340.3689,2014.453,337.5871,2009.5274,342.5127,2006.7456,332.77,2008.1875" style="stroke:#000000;stroke-width:2.5;stroke-linejoin:miter;stroke-miterlimit:10;"/><text fill="#000000" font-family="'Liberation Sans'" font-size="17" font-weight="700" lengthAdjust="spacing" textLength="140.7563" x="351.35" y="2008.1333">23. Open Reports</text></g><!--link P7 to D1--><g class="link" data-entity-1="ent0012" data-entity-2="ent0005" data-link-type="dependency" data-source-line="120" id="lnk45"><path d="M335.35,1971.8875 C379.58,1957.3075 441.57,1931.7875 484.98,1893.1575 C881.66,1540.2075 887.97,1324.2075 963.98,798.6975 C969.59,759.9175 985.36,743.3675 963.98,710.5275 C913.82,633.4875 654.4904,569.6086 519.8704,540.9486" fill="none" id="P7-to-D1" style="stroke:#000000;stroke-width:2.5;"/><polygon fill="#000000" points="514.98,539.9075,522.9498,545.6938,519.8704,540.9486,524.6156,537.8692,514.98,539.9075" style="stroke:#000000;stroke-width:2.5;stroke-linejoin:miter;stroke-miterlimit:10;"/><text fill="#000000" font-family="'Liberation Sans'" font-size="17" font-weight="700" lengthAdjust="spacing" textLength="193.6821" x="888.88" y="1281.0933">25. Hide / Restore Claim</text></g><!--link P7 to D5--><g class="link" data-entity-1="ent0012" data-entity-2="ent0015" data-link-type="dependency" data-source-line="121" id="lnk46"><path d="M299.41,2026.6875 C313.6,2054.4175 334.4,2092.6875 355.98,2124.2175 C369.14,2143.4575 382.6591,2159.8819 396.0191,2175.0819" fill="none" id="P7-to-D5" style="stroke:#000000;stroke-width:2.5;"/><polygon fill="#000000" points="399.32,2178.8375,396.3828,2169.4368,396.0191,2175.0819,390.3739,2174.7182,399.32,2178.8375" style="stroke:#000000;stroke-width:2.5;stroke-linejoin:miter;stroke-miterlimit:10;"/><text fill="#000000" font-family="'Liberation Sans'" font-size="17" font-weight="700" lengthAdjust="spacing" textLength="119.9629" x="356.98" y="2110.1633">26. Audit Entry</text></g><!--link D5 to ADM--><g class="link" data-entity-1="ent0015" data-entity-2="ent0014" data-link-type="dependency" data-source-line="122" id="lnk47"><path d="M344.9,2204.6475 C305.09,2204.6475 261.68,2204.6475 222.02,2204.6475" fill="none" id="D5-to-ADM" style="stroke:#000000;stroke-width:2.5;"/><polygon fill="#000000" points="217.02,2204.6475,226.02,2208.6475,222.02,2204.6475,226.02,2200.6475,217.02,2204.6475" style="stroke:#000000;stroke-width:2.5;stroke-linejoin:miter;stroke-miterlimit:10;"/><text fill="#000000" font-family="'Liberation Sans'" font-size="17" font-weight="700" lengthAdjust="spacing" textLength="112.4092" x="224.75" y="2197.5933">27. Audit Trail</text></g><?plantuml-src XLVRSjis47tNL-oeCwqzhLHHLySppOmgMMawZgDAZlCGvm4YOGbZ2c01q8xxzTq5I16av4GFiiszdJqukw3Dev0PqsmFnhwa7B-rY6s-JrlcODahgUATLdiELkSyi2JyWUMfNIXfRnYQszTYmpMpGabOCsdQfttNuZyE_TuhHeTZez8ai5jXKrw5Za-Qgi3MBx3AyOyHd6LAMys4FR-athYDTw2PV3J0CDp-1kRVd7FC6Qiqtqi3LcsvtN7T3Kgu09v158MOfKguUpfg1KytB7xSQfNBPAPIfU5v9sn8sLHhzUnDcnHzcwRRdOWV9JS6-jrHqtXW89gSD0KCLEPFXiVCy3-LJhW-NRdcyXg2qgdHu4-BYyMRnVJOiGBxvXNZIRWh7bicj-bt0JUSNeDSkJL0eoIaGHykxIdtqoAjcq-2dpFBDZyW--3pGo9BpzDCrgm16ZSGi60nFcNx33hE4nQfUeQvO5kAFRlcJpo5w9n6fNFumDKtoxLaAI0nmWfk0cDBb_r3UyMtmg0hJ-xb7TVYGN3T1cRWxchLIBdKAiQJmLHdkJzxsEIRJShDUPYyjBMZRkzUhlFDNbYOfKpiNTvbLC_gMZ9MQSgx4FY3VgSfJX4bxfzwzgJW2jhpFf06jN5fv_sgS9yApxd5U9ZdMIfYPhbtM_R3315uOEPUdZsvvcEtyioNh-S-QrHb7L3M3qooBI-fyjxmJyvpxjCFAlyX-S_KFiijXyzSR7UMI9vXUYvDNk0PXdW603VALZ0yXY3dY7A-uv9MCw8WQNHcEnu_mepfn6SSLUvZSiTZI_AOmnJLy695N1GUXogu4qOWxKZ3YhEayr6cBvw0k_VhAjs4qasJlP1EClVoPvZcYR0-uIJiP0WuPBInYnw6ORKo1JQXlDYcymzXz0XyOhXMsoB1g276z_89CM_eeik4v9U0tmPm5lIBs_9W5E3s1noIR0Snar9PU60IL6v3FQ7CeVDb9vA4ow-TjwGZEeRm4JAw73KUZLl8J3rms5fEwbxKLHqrZWI44t64X797S4d3KtZSycyMVh-NW9zrh3bgPwTikqNoxtoHYfhzUWZhTw6SOX-2f_yWKjvkeRtcJ-KkITMq3Rd83aKE4mEVcPP2RejOgj6da64NLQhtB1M69mvVvJ5tA4RemPzz0qLI5UTxN4Nj1Y4ugd0qgI4hcB3MfKCmBicPAPtX9BNmyJ4NaoxypU8O1mFU_W6zxcJKh8uZ3NwYuNYW6oWy0GDAVD659PS9KbECVg6Y083pU-CE8y7NCFYrE42LQnp5Jwjhn3oe7uYdBkfrOPfbc1vVO7mGD5PJ4KfbXYu4jJB09cij58U9vB8anG712o73vPeqAS0j1Sqb1OSTLUEWmR6ltIVzOBIhMjHSnxJD4UQmtg0xksWGHY2-rB9ZLy_5C22GG3q8dAoO5sLcGASwx4tHsEiEUglYvxgmdyq-tjnUhM-lve25EFMFMysLeXBkY2AKQjNjDEMQHcjmQbAYyG5DKI3SrKrUSLF3xu0B69Rv1dLDUmUR_gwsHwxCXFWnAdsYWwWcgCP0-oXsx68loi5O4xt6RNjQNjGmBIpoGLKsxesIhwXtqSk-mVBc7T4q3gFw9Clo0YcbnSnke-ZUQVIEzmHKrmGKjqHjrz7o9DWJbnm5FDtWDLFS6UrYamPwS6BhUx6X1-qiHONfegdnu1EYnZxY31tke1QkubD-AB0F-FAlG_LEOt-UHnZyWaN1_8M7W8UxAbvL_BkDzoS_TunzL8jl-qfQ_O98H_LqX8Zy9gNVBVvpaxR_1m00?></g></svg>