<svg xmlns="http://www.w3.org/2000/svg" xmlns:xlink="http://www.w3.org/1999/xlink" contentStyleType="text/css" data-diagram-type="DESCRIPTION" height="1610px" preserveAspectRatio="none" style="width:984px;height:1610px;background:#FFFFFF;" version="1.1" viewBox="0 0 984 1610" width="984px" zoomAndPan="magnify"><?plantuml $version$?><defs/><g><g class="title" data-source-line="32"><text fill="#000000" font-family="'Liberation Sans'" font-size="24" font-weight="700" lengthAdjust="spacing" textLength="542.6836" x="217.1582" y="32.5117">FactStamp - End-to-End Architectural Workflow</text></g><!--cluster 1. Ingestion Layer (Client UI)--><g class="cluster" data-qualified-name="1. Ingestion Layer .Client UI." data-source-line="34" id="ent0001"><polygon fill="none" points="22,55.124,284.5371,55.124,291.5371,82.9722,502,82.9722,502,289.224,22,289.224,22,55.124" style="stroke:#000000;stroke-width:2.5;stroke-linejoin:miter;stroke-miterlimit:10;"/><line style="stroke:#000000;stroke-width:2.5;" x1="22" x2="291.5371" y1="82.9722" y2="82.9722"/><text fill="#000000" font-family="'Liberation Sans'" font-size="19" font-weight="700" lengthAdjust="spacing" textLength="256.5371" x="26" y="74.9458">1. Ingestion Layer (Client UI)</text></g><!--cluster 2. Intelligence & Deduplication Layer--><g class="cluster" data-qualified-name="2. Intelligence . Deduplication Layer" data-source-line="40" id="ent0005"><polygon fill="none" points="76,340.224,413.5259,340.224,420.5259,368.0722,959,368.0722,959,465.314,76,465.314,76,340.224" style="stroke:#000000;stroke-width:2.5;stroke-linejoin:miter;stroke-miterlimit:10;"/><line style="stroke:#000000;stroke-width:2.5;" x1="76" x2="420.5259" y1="368.0722" y2="368.0722"/><text fill="#000000" font-family="'Liberation Sans'" font-size="19" font-weight="700" lengthAdjust="spacing" textLength="331.5259" x="80" y="360.0458">2. Intelligence &amp; Deduplication Layer</text></g><!--cluster 3. Persistent Storage (Cloud Firestore)--><g class="cluster" data-qualified-name="3. Persistent Storage .Cloud Firestore." data-source-line="47" id="ent0010"><polygon fill="none" points="81,516.314,434.353,516.314,441.353,544.1622,444,544.1622,444,642.714,81,642.714,81,516.314" style="stroke:#000000;stroke-width:2.5;stroke-linejoin:miter;stroke-miterlimit:10;"/><line style="stroke:#000000;stroke-width:2.5;" x1="81" x2="441.353" y1="544.1622" y2="544.1622"/><text fill="#000000" font-family="'Liberation Sans'" font-size="19" font-weight="700" lengthAdjust="spacing" textLength="347.353" x="85" y="536.1358">3. Persistent Storage (Cloud Firestore)</text></g><!--cluster 4. Community Quorum Verification Layer--><g class="cluster" data-qualified-name="4. Community Quorum Verification Layer" data-source-line="52" id="ent0013"><polygon fill="none" points="54,693.714,429.5166,693.714,436.5166,721.5622,470,721.5622,470,947.354,54,947.354,54,693.714" style="stroke:#000000;stroke-width:2.5;stroke-linejoin:miter;stroke-miterlimit:10;"/><line style="stroke:#000000;stroke-width:2.5;" x1="54" x2="436.5166" y1="721.5622" y2="721.5622"/><text fill="#000000" font-family="'Liberation Sans'" font-size="19" font-weight="700" lengthAdjust="spacing" textLength="369.5166" x="58" y="713.5358">4. Community Quorum Verification Layer</text></g><!--cluster 5. Consensus & Confidence Engine--><g class="cluster" data-qualified-name="5. Consensus . Confidence Engine" data-source-line="59" id="ent0018"><polygon fill="none" points="16,998.354,341.8828,998.354,348.8828,1026.2022,476,1026.2022,476,1271.554,16,1271.554,16,998.354" style="stroke:#000000;stroke-width:2.5;stroke-linejoin:miter;stroke-miterlimit:10;"/><line style="stroke:#000000;stroke-width:2.5;" x1="16" x2="348.8828" y1="1026.2022" y2="1026.2022"/><text fill="#000000" font-family="'Liberation Sans'" font-size="19" font-weight="700" lengthAdjust="spacing" textLength="319.8828" x="20" y="1018.1758">5. Consensus &amp; Confidence Engine</text></g><!--cluster 6. Generation & Counter-Spread--><g class="cluster" data-qualified-name="6. Generation . Counter-Spread" data-source-line="66" id="ent0023"><polygon fill="none" points="37,1322.554,332.2676,1322.554,339.2676,1350.4022,477,1350.4022,477,1595.744,37,1595.744,37,1322.554" style="stroke:#000000;stroke-width:2.5;stroke-linejoin:miter;stroke-miterlimit:10;"/><line style="stroke:#000000;stroke-width:2.5;" x1="37" x2="339.2676" y1="1350.4022" y2="1350.4022"/><text fill="#000000" font-family="'Liberation Sans'" font-size="19" font-weight="700" lengthAdjust="spacing" textLength="289.2676" x="41" y="1342.3758">6. Generation &amp; Counter-Spread</text></g><!--entity INGEST--><g class="entity" data-qualified-name="1. Ingestion Layer .Client UI..INGEST" data-source-line="35" id="ent0002"><rect fill="#F8F8F8" height="49.5483" rx="2.5" ry="2.5" style="stroke:#000000;stroke-width:2.5;" width="342.2646" x="90.87" y="95.124"/><rect fill="#F8F8F8" height="10" style="stroke:#000000;stroke-width:2.5;" width="15" x="413.1346" y="100.124"/><rect fill="#F8F8F8" height="2" style="stroke:#000000;stroke-width:2.5;" width="4" x="411.1346" y="102.124"/><rect fill="#F8F8F8" height="2" style="stroke:#000000;stroke-width:2.5;" width="4" x="411.1346" y="106.124"/><text fill="#000000" font-family="'Liberation Sans'" font-size="17" font-weight="700" lengthAdjust="spacing" textLength="302.2646" x="105.87" y="131.0698">WhatsApp Text Forward / Screenshot</text></g><!--entity OCR--><g class="entity" data-qualified-name="1. Ingestion Layer .Client UI..OCR" data-source-line="36" id="ent0003"><rect fill="#F8F8F8" height="49.5483" rx="2.5" ry="2.5" style="stroke:#000000;stroke-width:2.5;" width="448.9961" x="37.5" y="223.674"/><rect fill="#F8F8F8" height="10" style="stroke:#000000;stroke-width:2.5;" width="15" x="466.4961" y="228.674"/><rect fill="#F8F8F8" height="2" style="stroke:#000000;stroke-width:2.5;" width="4" x="464.4961" y="230.674"/><rect fill="#F8F8F8" height="2" style="stroke:#000000;stroke-width:2.5;" width="4" x="464.4961" y="234.674"/><text fill="#000000" font-family="'Liberation Sans'" font-size="17" font-weight="700" lengthAdjust="spacing" textLength="408.9961" x="52.5" y="259.6198">Client-Side Image Compression &amp; Automated OCR</text></g><!--entity DEDUP--><g class="entity" data-qualified-name="2. Intelligence . Deduplication Layer.DEDUP" data-source-line="41" id="ent0006"><rect fill="#F8F8F8" height="69.0967" rx="2.5" ry="2.5" style="stroke:#000000;stroke-width:2.5;" width="340.4551" x="91.77" y="380.224"/><rect fill="#F8F8F8" height="10" style="stroke:#000000;stroke-width:2.5;" width="15" x="412.2251" y="385.224"/><rect fill="#F8F8F8" height="2" style="stroke:#000000;stroke-width:2.5;" width="4" x="410.2251" y="387.224"/><rect fill="#F8F8F8" height="2" style="stroke:#000000;stroke-width:2.5;" width="4" x="410.2251" y="391.224"/><text fill="#000000" font-family="'Liberation Sans'" font-size="17" font-weight="700" lengthAdjust="spacing" textLength="300.4551" x="106.77" y="416.1698">Jaccard Similarity Duplicate Detector</text><text fill="#000000" font-family="'Liberation Sans'" font-size="17" font-weight="700" lengthAdjust="spacing" textLength="170.0581" x="106.77" y="435.7182">(Threshold J &gt;= 0.75)</text></g><!--entity INSTANT--><g class="entity" data-qualified-name="2. Intelligence . Deduplication Layer.INSTANT" data-source-line="42" id="ent0007"><rect fill="#F8F8F8" height="69.0967" rx="2.5" ry="2.5" style="stroke:#000000;stroke-width:2.5;" width="304.5044" x="638.75" y="380.224"/><rect fill="#F8F8F8" height="10" style="stroke:#000000;stroke-width:2.5;" width="15" x="923.2544" y="385.224"/><rect fill="#F8F8F8" height="2" style="stroke:#000000;stroke-width:2.5;" width="4" x="921.2544" y="387.224"/><rect fill="#F8F8F8" height="2" style="stroke:#000000;stroke-width:2.5;" width="4" x="921.2544" y="391.224"/><text fill="#000000" font-family="'Liberation Sans'" font-size="17" font-weight="700" lengthAdjust="spacing" textLength="264.5044" x="653.75" y="416.1698">Instant Certified Verdict Redirect</text><text fill="#000000" font-family="'Liberation Sans'" font-size="17" font-weight="700" lengthAdjust="spacing" textLength="208.7729" x="653.75" y="435.7182">(Existing Resolved Claim)</text></g><!--entity DB--><g class="entity" data-qualified-name="3. Persistent Storage .Cloud Firestore..DB" data-source-line="48" id="ent0011"><path d="M101.93,566.314 C101.93,556.314 261.9988,556.314 261.9988,556.314 C261.9988,556.314 422.0677,556.314 422.0677,566.314 L422.0677,616.7105 C422.0677,626.7105 261.9988,626.7105 261.9988,626.7105 C261.9988,626.7105 101.93,626.7105 101.93,616.7105 L101.93,566.314" fill="#F8F8F8" style="stroke:#000000;stroke-width:2.5;"/><path d="M101.93,566.314 C101.93,576.314 261.9988,576.314 261.9988,576.314 C261.9988,576.314 422.0677,576.314 422.0677,566.314" fill="none" style="stroke:#000000;stroke-width:2.5;"/><text fill="#000000" font-family="'Liberation Sans'" font-size="18" font-weight="700" lengthAdjust="spacing" textLength="228.0674" x="111.93" y="597.1978">Firestore NoSQL Database</text><text fill="#000000" font-family="'Liberation Sans'" font-size="18" font-weight="700" lengthAdjust="spacing" textLength="300.1377" x="111.93" y="617.8961">(claims, verifications, users, alerts)</text></g><!--entity QUEUE--><g class="entity" data-qualified-name="4. Community Quorum Verification Layer.QUEUE" data-source-line="53" id="ent0014"><rect fill="#F8F8F8" height="49.5483" rx="2.5" ry="2.5" style="stroke:#000000;stroke-width:2.5;" width="383.8433" x="70.08" y="733.714"/><rect fill="#F8F8F8" height="10" style="stroke:#000000;stroke-width:2.5;" width="15" x="433.9233" y="738.714"/><rect fill="#F8F8F8" height="2" style="stroke:#000000;stroke-width:2.5;" width="4" x="431.9233" y="740.714"/><rect fill="#F8F8F8" height="2" style="stroke:#000000;stroke-width:2.5;" width="4" x="431.9233" y="744.714"/><text fill="#000000" font-family="'Liberation Sans'" font-size="17" font-weight="700" lengthAdjust="spacing" textLength="343.8433" x="85.08" y="769.6598">Public Verification Queue (Quorum N &gt;= 3)</text></g><!--entity VERIFIERS--><g class="entity" data-qualified-name="4. Community Quorum Verification Layer.VERIFIERS" data-source-line="54" id="ent0015"><rect fill="#F8F8F8" height="69.0967" rx="2.5" ry="2.5" style="stroke:#000000;stroke-width:2.5;" width="336.6201" x="69.69" y="862.264"/><rect fill="#F8F8F8" height="10" style="stroke:#000000;stroke-width:2.5;" width="15" x="386.3101" y="867.264"/><rect fill="#F8F8F8" height="2" style="stroke:#000000;stroke-width:2.5;" width="4" x="384.3101" y="869.264"/><rect fill="#F8F8F8" height="2" style="stroke:#000000;stroke-width:2.5;" width="4" x="384.3101" y="873.264"/><text fill="#000000" font-family="'Liberation Sans'" font-size="17" font-weight="700" lengthAdjust="spacing" textLength="271.1367" x="84.69" y="898.2098">Independent Verifiers (V1, V2, V3)</text><text fill="#000000" font-family="'Liberation Sans'" font-size="17" font-weight="700" lengthAdjust="spacing" textLength="296.6201" x="84.69" y="917.7582">Submit Vote + Source URL + Reason</text></g><!--entity ENGINE--><g class="entity" data-qualified-name="5. Consensus . Confidence Engine.ENGINE" data-source-line="60" id="ent0019"><rect fill="#F8F8F8" height="69.0967" rx="2.5" ry="2.5" style="stroke:#000000;stroke-width:2.5;" width="402.6943" x="36.65" y="1038.354"/><rect fill="#F8F8F8" height="10" style="stroke:#000000;stroke-width:2.5;" width="15" x="419.3443" y="1043.354"/><rect fill="#F8F8F8" height="2" style="stroke:#000000;stroke-width:2.5;" width="4" x="417.3443" y="1045.354"/><rect fill="#F8F8F8" height="2" style="stroke:#000000;stroke-width:2.5;" width="4" x="417.3443" y="1049.354"/><text fill="#000000" font-family="'Liberation Sans'" font-size="17" font-weight="700" lengthAdjust="spacing" textLength="362.6943" x="51.65" y="1074.2998">Multi-Factor Weighted Consensus Calculator</text><text fill="#000000" font-family="'Liberation Sans'" font-size="17" font-weight="700" lengthAdjust="spacing" textLength="225.3994" x="51.65" y="1093.8482">C = 0.40*A + 0.30*R + 0.30*S</text></g><!--entity VERDICT--><g class="entity" data-qualified-name="5. Consensus . Confidence Engine.VERDICT" data-source-line="61" id="ent0020"><rect fill="#F8F8F8" height="69.0967" rx="2.5" ry="2.5" style="stroke:#000000;stroke-width:2.5;" width="428.1694" x="31.92" y="1186.454"/><rect fill="#F8F8F8" height="10" style="stroke:#000000;stroke-width:2.5;" width="15" x="440.0894" y="1191.454"/><rect fill="#F8F8F8" height="2" style="stroke:#000000;stroke-width:2.5;" width="4" x="438.0894" y="1193.454"/><rect fill="#F8F8F8" height="2" style="stroke:#000000;stroke-width:2.5;" width="4" x="438.0894" y="1197.454"/><text fill="#000000" font-family="'Liberation Sans'" font-size="17" font-weight="700" lengthAdjust="spacing" textLength="246.5664" x="46.92" y="1222.3998">Certified Verdict Classification</text><text fill="#000000" font-family="'Liberation Sans'" font-size="17" font-weight="700" lengthAdjust="spacing" textLength="388.1694" x="46.92" y="1241.9482">(TRUE / FALSE / MISLEADING / UNVERIFIABLE)</text></g><!--entity CARD--><g class="entity" data-qualified-name="6. Generation . Counter-Spread.CARD" data-source-line="67" id="ent0024"><rect fill="#F8F8F8" height="69.0967" rx="2.5" ry="2.5" style="stroke:#000000;stroke-width:2.5;" width="386.6406" x="52.68" y="1362.554"/><rect fill="#F8F8F8" height="10" style="stroke:#000000;stroke-width:2.5;" width="15" x="419.3206" y="1367.554"/><rect fill="#F8F8F8" height="2" style="stroke:#000000;stroke-width:2.5;" width="4" x="417.3206" y="1369.554"/><rect fill="#F8F8F8" height="2" style="stroke:#000000;stroke-width:2.5;" width="4" x="417.3206" y="1373.554"/><text fill="#000000" font-family="'Liberation Sans'" font-size="17" font-weight="700" lengthAdjust="spacing" textLength="346.6406" x="67.68" y="1398.4998">Client-Side Card Generator (html-to-image)</text><text fill="#000000" font-family="'Liberation Sans'" font-size="17" font-weight="700" lengthAdjust="spacing" textLength="333.5171" x="67.68" y="1418.0482">1080x1080px WhatsApp Fact-Check Card</text></g><!--entity SHARE--><g class="entity" data-qualified-name="6. Generation . Counter-Spread.SHARE" data-source-line="68" id="ent0025"><rect fill="#F8F8F8" height="69.0967" rx="2.5" ry="2.5" style="stroke:#000000;stroke-width:2.5;" width="408.3555" x="52.82" y="1510.644"/><rect fill="#F8F8F8" height="10" style="stroke:#000000;stroke-width:2.5;" width="15" x="441.1755" y="1515.644"/><rect fill="#F8F8F8" height="2" style="stroke:#000000;stroke-width:2.5;" width="4" x="439.1755" y="1517.644"/><rect fill="#F8F8F8" height="2" style="stroke:#000000;stroke-width:2.5;" width="4" x="439.1755" y="1521.644"/><text fill="#000000" font-family="'Liberation Sans'" font-size="17" font-weight="700" lengthAdjust="spacing" textLength="368.3555" x="67.82" y="1546.5898">Share Back into Originating WhatsApp Group</text><text fill="#000000" font-family="'Liberation Sans'" font-size="17" font-weight="700" lengthAdjust="spacing" textLength="263.5166" x="67.82" y="1566.1382">(Reversing Misinformation Flow)</text></g><!--link INGEST to OCR--><g class="link" data-entity-1="ent0002" data-entity-2="ent0003" data-link-type="dependency" data-source-line="37" id="lnk4"><path d="M262,144.994 C262,167.514 262,195.944 262,218.434" fill="none" id="INGEST-to-OCR" style="stroke:#000000;stroke-width:2.5;"/><polygon fill="#000000" points="262,223.434,266,214.434,262,218.434,258,214.434,262,223.434" style="stroke:#000000;stroke-width:2.5;stroke-linejoin:miter;stroke-miterlimit:10;"/><text fill="#000000" font-family="'Liberation Sans'" font-size="15" font-weight="700" lengthAdjust="spacing" textLength="180.8862" x="263" y="189.7438">Extract Plaintext Forward</text></g><!--link OCR to DEDUP--><g class="link" data-entity-1="ent0003" data-entity-2="ent0006" data-link-type="dependency" data-source-line="43" id="lnk8"><path d="M262,273.694 C262,301.814 262,343.354 262,375.004" fill="none" id="OCR-to-DEDUP" style="stroke:#000000;stroke-width:2.5;"/><polygon fill="#000000" points="262,380.004,266,371.004,262,375.004,258,371.004,262,380.004" style="stroke:#000000;stroke-width:2.5;stroke-linejoin:miter;stroke-miterlimit:10;"/><text fill="#000000" font-family="'Liberation Sans'" font-size="15" font-weight="700" lengthAdjust="spacing" textLength="170.8594" x="263" y="320.2938">Submit Normalized Text</text></g><!--link DEDUP to INSTANT--><g class="link" data-entity-1="ent0006" data-entity-2="ent0007" data-link-type="dependency" data-source-line="44" id="lnk9"><path d="M432.66,414.764 C498.93,414.764 569.25,414.764 633.66,414.764" fill="none" id="DEDUP-to-INSTANT" style="stroke:#000000;stroke-width:2.5;"/><polygon fill="#000000" points="638.66,414.764,629.66,410.764,633.66,414.764,629.66,418.764,638.66,414.764" style="stroke:#000000;stroke-width:2.5;stroke-linejoin:miter;stroke-miterlimit:10;"/><text fill="#000000" font-family="'Liberation Sans'" font-size="15" font-weight="700" lengthAdjust="spacing" textLength="170.8667" x="450.49" y="407.8338">Match Found (J &gt;= 0.75)</text></g><!--link DEDUP to DB--><g class="link" data-entity-1="ent0006" data-entity-2="ent0011" data-link-type="dependency" data-source-line="49" id="lnk12"><path d="M262,449.464 C262,480.104 262,520.134 262,551.024" fill="none" id="DEDUP-to-DB" style="stroke:#000000;stroke-width:2.5;"/><polygon fill="#000000" points="262,556.024,266,547.024,262,551.024,258,547.024,262,556.024" style="stroke:#000000;stroke-width:2.5;stroke-linejoin:miter;stroke-miterlimit:10;"/><text fill="#000000" font-family="'Liberation Sans'" font-size="15" font-weight="700" lengthAdjust="spacing" textLength="199.6436" x="263" y="496.3838">New Unique Claim (J &lt; 0.75)</text></g><!--link DB to QUEUE--><g class="link" data-entity-1="ent0011" data-entity-2="ent0014" data-link-type="dependency" data-source-line="55" id="lnk16"><path d="M262,627.094 C262,659.034 262,700.624 262,728.614" fill="none" id="DB-to-QUEUE" style="stroke:#000000;stroke-width:2.5;"/><polygon fill="#000000" points="262,733.614,266,724.614,262,728.614,258,724.614,262,733.614" style="stroke:#000000;stroke-width:2.5;stroke-linejoin:miter;stroke-miterlimit:10;"/><text fill="#000000" font-family="'Liberation Sans'" font-size="15" font-weight="700" lengthAdjust="spacing" textLength="196.7065" x="263" y="673.7838">Enqueue Unverified Record</text></g><!--link QUEUE to VERIFIERS--><g class="link" data-entity-1="ent0014" data-entity-2="ent0015" data-link-type="dependency" data-source-line="56" id="lnk17"><path d="M257.76,783.544 C253.94,805.254 249.1479,832.4999 244.8579,856.8399" fill="none" id="QUEUE-to-VERIFIERS" style="stroke:#000000;stroke-width:2.5;"/><polygon fill="#000000" points="243.99,861.764,249.4915,853.595,244.8579,856.8399,241.6129,852.2063,243.99,861.764" style="stroke:#000000;stroke-width:2.5;stroke-linejoin:miter;stroke-miterlimit:10;"/><text fill="#000000" font-family="'Liberation Sans'" font-size="15" font-weight="700" lengthAdjust="spacing" textLength="223.3667" x="253.15" y="828.3338">Assign for Independent Review</text></g><!--link VERIFIERS to ENGINE--><g class="link" data-entity-1="ent0015" data-entity-2="ent0019" data-link-type="dependency" data-source-line="62" id="lnk21"><path d="M238,931.794 C238,962.464 238,1002.364 238,1033.014" fill="none" id="VERIFIERS-to-ENGINE" style="stroke:#000000;stroke-width:2.5;"/><polygon fill="#000000" points="238,1038.014,242,1029.014,238,1033.014,234,1029.014,238,1038.014" style="stroke:#000000;stroke-width:2.5;stroke-linejoin:miter;stroke-miterlimit:10;"/><text fill="#000000" font-family="'Liberation Sans'" font-size="15" font-weight="700" lengthAdjust="spacing" textLength="180.8862" x="239" y="978.4238">Aggregate 3 Verifications</text></g><!--link ENGINE to VERDICT--><g class="link" data-entity-1="ent0019" data-entity-2="ent0020" data-link-type="dependency" data-source-line="63" id="lnk22"><path d="M239.86,1107.794 C241.14,1131.304 242.5763,1157.5215 243.8663,1181.0515" fill="none" id="ENGINE-to-VERDICT" style="stroke:#000000;stroke-width:2.5;"/><polygon fill="#000000" points="244.14,1186.044,247.6413,1176.8386,243.8663,1181.0515,239.6533,1177.2765,244.14,1186.044" style="stroke:#000000;stroke-width:2.5;stroke-linejoin:miter;stroke-miterlimit:10;"/><text fill="#000000" font-family="'Liberation Sans'" font-size="15" font-weight="700" lengthAdjust="spacing" textLength="220.0415" x="243.48" y="1152.5238">Compute Final Verdict &amp; Score</text></g><!--link VERDICT to CARD--><g class="link" data-entity-1="ent0020" data-entity-2="ent0024" data-link-type="dependency" data-source-line="69" id="lnk26"><path d="M246,1255.984 C246,1286.664 246,1326.554 246,1357.204" fill="none" id="VERDICT-to-CARD" style="stroke:#000000;stroke-width:2.5;"/><polygon fill="#000000" points="246,1362.204,250,1353.204,246,1357.204,242,1353.204,246,1362.204" style="stroke:#000000;stroke-width:2.5;stroke-linejoin:miter;stroke-miterlimit:10;"/><text fill="#000000" font-family="'Liberation Sans'" font-size="15" font-weight="700" lengthAdjust="spacing" textLength="235.0708" x="247" y="1302.6238">Render Visual Fact-Check Stamp</text></g><!--link CARD to SHARE--><g class="link" data-entity-1="ent0024" data-entity-2="ent0025" data-link-type="dependency" data-source-line="70" id="lnk27"><path d="M248.55,1431.984 C250.32,1455.504 252.2951,1481.7181 254.0651,1505.2581" fill="none" id="CARD-to-SHARE" style="stroke:#000000;stroke-width:2.5;"/><polygon fill="#000000" points="254.44,1510.244,257.7539,1500.9694,254.0651,1505.2581,249.7764,1501.5693,254.44,1510.244" style="stroke:#000000;stroke-width:2.5;stroke-linejoin:miter;stroke-miterlimit:10;"/><text fill="#000000" font-family="'Liberation Sans'" font-size="15" font-weight="700" lengthAdjust="spacing" textLength="240.8789" x="253.16" y="1476.7138">User Downloads &amp; Forwards PNG</text></g><?plantuml-src XLPRSzf667tdLtpZpcHmQeYlZTDfCuD1k6GmmP8X3qqV5cb1EvPsoMfbx7Rotti-NRYua3vOGlekUyxvBdBsgFHIM95IvbuIYQjLeSlJf96jBQdH9eojIIKvcyijIoJd8azStsWt4Z0V3TLCMk6KqHG8dHtjzmtKtvBEhWyO2nmpaqHRTgTS8jUXvvTxJPl0BVDCX8yBQt8TTKrYBArYvROfTAmrgz8qI-3xslGGg_1HoooZy_RLQ-E6p7xJNaHTaowDbjhT61j9k__iLqw7K6pSNj7ygN_T_z3lx7FTW7v_qBmN-1XdY8Ny4UmTbqEWAwSDZWy7Z7jHz8GJCv7z4CQkpo4SQw__rQxstD-yEzOjp4LdKb-4U2lI9RN8qr7BcHPkQ9AGEn6pPaL2Nunzd2TcrMWiI_vqTDQcWLx8h1YceNYHbfhTHA52D1aS7z4_3Q8_lyJ2PPtbaXxaiwE-iIjX8tf7GMYbr5bit5yaCXgCRhtWWGFA3Ar0HP86AH_4XRSGXuzvGvtScLGu6T7dhb_4uex0CWEr8hFIhO_yadubxzbPiADn8fHsMmWQtxU8d3CH9vD4BQGE9GxfoIXV9YeK6suLdqyY39b1e5AL2AlS2_KgLuamrilOhxhv40Do39Nf4ttydKxRxw-E2xGzhpSPSwQ1pfo0LbrfdPeh49fA6s6taIyZPP48QRnd1Ntr0kyoapp1gGigwN4bMl3G6R5gpBPcNXm0xa4-IvMZaR6fID0IKL42E9SEBQiMiOD_bGKHTyA5CHH2dr5p0tj7guisZQNDW8hh780ilqRTJHvH7x0pl99LzQEgx-XeRG6Uu7wuxaXG39bGTa9FqaA6Kd8yvXcEEI6HG9uC-LYwcmtwckmDS8_aYYPQVSjbgGw3_sqFziiszrAQQwxQVMvidhBcwrDt2ZtEPwZghlq-bpYZMOMEMA6BiXJt4s_YbLMDv5BY0dNAMD2WvlJiXARd-Biu_gghoamDMkPd2ankqNGJVuW7NuhCw2BbrFC7_O7d1qpwPisuE8bRMtyhq4nqAHpgwyiGwmJkfKyTiKw4g0x6QA5fZYMoZTINJqgkTiIwOh5qXXdDCqm4ViynaZmUdbueBIkPxl1HL2rU8KZvHN9FSPEk8xiY2VD454FH9UweozEt7J0zRL-SllNh7q51sHlT3aQ5ZFyT2bGMsEjIy8JvuFYE-frXmFUxGJ3qEZsi0JnCHYNfpitGEwxLx0swF2iREMg1ocDPdSN2oWLFyiLEuJE4LKvRed8-1F5woX7ILnfxieRx1XiExRuZwIzjkfMw_lU3DSsnTcmhm7eJKINezlxhygQfGY1lCtPfmkjPyLv48vsTNfy-ysNvJEj5oxLeTMCPFXRn1Vjkn-znyY0M647-d13seQ7FM0A0NMoOTO9RV6cM41XDmPCEqvt2RSwBf43UntUWL3Nue-DxfQQ56hKwV1wayRczB4rLbaEQBM35vmPnXLyTL2H3r0IJJpsyIuo8kFUgdPtHU7JR-Ful?></g></svg>