<svg xmlns="http://www.w3.org/2000/svg" xmlns:xlink="http://www.w3.org/1999/xlink" contentStyleType="text/css" data-diagram-type="DESCRIPTION" height="1432px" preserveAspectRatio="none" style="width:1420px;height:1432px;background:#FFFFFF;" version="1.1" viewBox="0 0 1420 1432" width="1420px" zoomAndPan="magnify"><?plantuml $version$?><defs/><g><g class="title" data-source-line="27"><text fill="#000000" font-family="'Liberation Sans'" font-size="18" font-weight="700" lengthAdjust="spacing" textLength="654.0557" x="379.4722" y="26.8838">FactStamp: End-to-End System Implementation &amp; Client-First Edge Dataflow</text></g><!--cluster Client-Side Edge Execution Layer (Browser Runtime)--><g class="cluster" data-qualified-name="Client-Side Edge Execution Layer .Browser Runtime." data-source-line="29" id="ent0001"><polygon fill="#FFFFFF" points="701,47.6982,1034.228,47.6982,1041.228,68.647,1395,68.647,1395,1223.4082,701,1223.4082,701,47.6982" style="stroke:#000000;stroke-width:2;stroke-linejoin:miter;stroke-miterlimit:10;"/><line style="stroke:#000000;stroke-width:2;" x1="701" x2="1041.228" y1="68.647" y2="68.647"/><text fill="#000000" font-family="'Liberation Sans'" font-size="13" font-weight="700" lengthAdjust="spacing" textLength="327.228" x="705" y="61.8921">Client-Side Edge Execution Layer (Browser Runtime)</text></g><!--cluster Edge Preprocessing Subsystems--><g class="cluster" data-qualified-name="Client-Side Edge Execution Layer .Browser Runtime..Edge Preprocessing Subsystems" data-source-line="32" id="ent0003"><polygon fill="#FFFFFF" points="834,201.5982,1045.9116,201.5982,1052.9116,222.547,1110,222.547,1110,580.2882,834,580.2882,834,201.5982" style="stroke:#000000;stroke-width:2;stroke-linejoin:miter;stroke-miterlimit:10;"/><line style="stroke:#000000;stroke-width:2;" x1="834" x2="1052.9116" y1="222.547" y2="222.547"/><text fill="#000000" font-family="'Liberation Sans'" font-size="13" font-weight="700" lengthAdjust="spacing" textLength="205.9116" x="838" y="215.7921">Edge Preprocessing Subsystems</text></g><!--cluster Core Reactive Modules & State--><g class="cluster" data-qualified-name="Client-Side Edge Execution Layer .Browser Runtime..Core Reactive Modules . State" data-source-line="38" id="ent0007"><polygon fill="#FFFFFF" points="725,627.2882,922.4453,627.2882,929.4453,648.237,1371,648.237,1371,1024.9882,725,1024.9882,725,627.2882" style="stroke:#000000;stroke-width:2;stroke-linejoin:miter;stroke-miterlimit:10;"/><line style="stroke:#000000;stroke-width:2;" x1="725" x2="929.4453" y1="648.237" y2="648.237"/><text fill="#000000" font-family="'Liberation Sans'" font-size="13" font-weight="700" lengthAdjust="spacing" textLength="191.4453" x="729" y="641.4821">Core Reactive Modules &amp; State</text></g><!--cluster Serverless Cloud BaaS Infrastructure (Zero-Cost Tier)--><g class="cluster" data-qualified-name="Serverless Cloud BaaS Infrastructure .Zero-Cost Tier." data-source-line="48" id="ent0013"><polygon fill="#FFFFFF" points="16,781.1882,353.5889,781.1882,360.5889,802.137,602,802.137,602,1417.7782,16,1417.7782,16,781.1882" style="stroke:#000000;stroke-width:2;stroke-linejoin:miter;stroke-miterlimit:10;"/><line style="stroke:#000000;stroke-width:2;" x1="16" x2="360.5889" y1="802.137" y2="802.137"/><text fill="#000000" font-family="'Liberation Sans'" font-size="13" font-weight="700" lengthAdjust="spacing" textLength="331.5889" x="20" y="795.3821">Serverless Cloud BaaS Infrastructure (Zero-Cost Tier)</text></g><!--cluster FS--><g class="cluster" data-qualified-name="Serverless Cloud BaaS Infrastructure .Zero-Cost Tier..FS" data-source-line="49" id="ent0014"><path d="M48,1089.9882 C48,1079.9882 309,1079.9882 309,1079.9882 C309,1079.9882 570,1079.9882 570,1089.9882 L570,1375.7782 C570,1385.7782 309,1385.7782 309,1385.7782 C309,1385.7782 48,1385.7782 48,1375.7782 L48,1089.9882" fill="#F3F3F3" style="stroke:#000000;stroke-width:2;"/><path d="M48,1089.9882 C48,1099.9882 309,1099.9882 309,1099.9882 C309,1099.9882 570,1099.9882 570,1089.9882" fill="none" style="stroke:#000000;stroke-width:2;"/><text fill="#000000" font-family="'Liberation Sans'" font-size="13" font-weight="700" lengthAdjust="spacing" textLength="144.4536" x="236.7732" y="1114.1821">Google Cloud Firestore</text><text fill="#000000" font-family="'Liberation Sans'" font-size="13" font-weight="700" lengthAdjust="spacing" textLength="156.7236" x="230.6382" y="1129.1308">(NoSQL Cloud Datastore)</text></g><!--entity UI_IN--><g class="entity" data-qualified-name="Client-Side Edge Execution Layer .Browser Runtime..UI_IN" data-source-line="30" id="ent0002"><rect fill="#F8F8F8" height="59.8975" rx="2.5" ry="2.5" style="stroke:#000000;stroke-width:2;" width="252.418" x="772.79" y="80.6982"/><rect fill="#F8F8F8" height="10" style="stroke:#000000;stroke-width:2;" width="15" x="1005.208" y="85.6982"/><rect fill="#F8F8F8" height="2" style="stroke:#000000;stroke-width:2;" width="4" x="1003.208" y="87.6982"/><rect fill="#F8F8F8" height="2" style="stroke:#000000;stroke-width:2;" width="4" x="1003.208" y="91.6982"/><text fill="#000000" font-family="'Liberation Sans'" font-size="13" lengthAdjust="spacing" textLength="138.0171" x="787.79" y="112.8921">User Ingestion Interface</text><text fill="#000000" font-family="'Liberation Sans'" font-size="13" lengthAdjust="spacing" textLength="212.418" x="787.79" y="127.8408">(Text Input &amp; Drag-Drop Screenshot)</text></g><!--entity UI_OUT--><g class="entity" data-qualified-name="Client-Side Edge Execution Layer .Browser Runtime..UI_OUT" data-source-line="45" id="ent0012"><rect fill="#F8F8F8" height="44.9487" rx="2.5" ry="2.5" style="stroke:#000000;stroke-width:2;" width="270.4834" x="1022.76" y="1162.4582"/><rect fill="#F8F8F8" height="10" style="stroke:#000000;stroke-width:2;" width="15" x="1273.2434" y="1167.4582"/><rect fill="#F8F8F8" height="2" style="stroke:#000000;stroke-width:2;" width="4" x="1271.2434" y="1169.4582"/><rect fill="#F8F8F8" height="2" style="stroke:#000000;stroke-width:2;" width="4" x="1271.2434" y="1173.4582"/><text fill="#000000" font-family="'Liberation Sans'" font-size="13" lengthAdjust="spacing" textLength="230.4834" x="1037.76" y="1194.6521">Dissemination &amp; WhatsApp Card Export</text></g><!--entity NLP--><g class="entity" data-qualified-name="Client-Side Edge Execution Layer .Browser Runtime..Edge Preprocessing Subsystems.NLP" data-source-line="33" id="ent0004"><rect fill="#F8F8F8" height="59.8975" rx="2.5" ry="2.5" style="stroke:#000000;stroke-width:2;" width="235.0762" x="850.46" y="504.3982"/><rect fill="#F8F8F8" height="10" style="stroke:#000000;stroke-width:2;" width="15" x="1065.5362" y="509.3982"/><rect fill="#F8F8F8" height="2" style="stroke:#000000;stroke-width:2;" width="4" x="1063.5362" y="511.3982"/><rect fill="#F8F8F8" height="2" style="stroke:#000000;stroke-width:2;" width="4" x="1063.5362" y="515.3982"/><text fill="#000000" font-family="'Liberation Sans'" font-size="13" lengthAdjust="spacing" textLength="164.7407" x="865.46" y="536.5921">Regex Sanitizer &amp; Tokenizer</text><text fill="#000000" font-family="'Liberation Sans'" font-size="13" lengthAdjust="spacing" textLength="195.0762" x="865.46" y="551.5408">(security.ts, duplicateDetection.ts)</text></g><!--entity COMPRESS--><g class="entity" data-qualified-name="Client-Side Edge Execution Layer .Browser Runtime..Edge Preprocessing Subsystems.COMPRESS" data-source-line="34" id="ent0005"><rect fill="#F8F8F8" height="59.8975" rx="2.5" ry="2.5" style="stroke:#000000;stroke-width:2;" width="243.0361" x="850.48" y="234.5982"/><rect fill="#F8F8F8" height="10" style="stroke:#000000;stroke-width:2;" width="15" x="1073.5161" y="239.5982"/><rect fill="#F8F8F8" height="2" style="stroke:#000000;stroke-width:2;" width="4" x="1071.5161" y="241.5982"/><rect fill="#F8F8F8" height="2" style="stroke:#000000;stroke-width:2;" width="4" x="1071.5161" y="245.5982"/><text fill="#000000" font-family="'Liberation Sans'" font-size="13" lengthAdjust="spacing" textLength="161.8335" x="865.48" y="266.7921">HTML5 Canvas Downscaler</text><text fill="#000000" font-family="'Liberation Sans'" font-size="13" lengthAdjust="spacing" textLength="203.0361" x="865.48" y="281.7408">(imageCompression.ts: &lt;= 700 KB)</text></g><!--entity OCR--><g class="entity" data-qualified-name="Client-Side Edge Execution Layer .Browser Runtime..Edge Preprocessing Subsystems.OCR" data-source-line="35" id="ent0006"><rect fill="#F8F8F8" height="59.8975" rx="2.5" ry="2.5" style="stroke:#000000;stroke-width:2;" width="205.4199" x="856.29" y="369.4982"/><rect fill="#F8F8F8" height="10" style="stroke:#000000;stroke-width:2;" width="15" x="1041.7099" y="374.4982"/><rect fill="#F8F8F8" height="2" style="stroke:#000000;stroke-width:2;" width="4" x="1039.7099" y="376.4982"/><rect fill="#F8F8F8" height="2" style="stroke:#000000;stroke-width:2;" width="4" x="1039.7099" y="380.4982"/><text fill="#000000" font-family="'Liberation Sans'" font-size="13" lengthAdjust="spacing" textLength="139.439" x="871.29" y="401.6921">In-Browser OCR Engine</text><text fill="#000000" font-family="'Liberation Sans'" font-size="13" lengthAdjust="spacing" textLength="165.4199" x="871.29" y="416.6408">(Tesseract.js WebAssembly)</text></g><!--entity CCTX--><g class="entity" data-qualified-name="Client-Side Edge Execution Layer .Browser Runtime..Core Reactive Modules . State.CCTX" data-source-line="39" id="ent0008"><rect fill="#F8F8F8" height="44.9487" rx="2.5" ry="2.5" style="stroke:#000000;stroke-width:2;" width="202.5825" x="866.71" y="821.6582"/><rect fill="#F8F8F8" height="10" style="stroke:#000000;stroke-width:2;" width="15" x="1049.2925" y="826.6582"/><rect fill="#F8F8F8" height="2" style="stroke:#000000;stroke-width:2;" width="4" x="1047.2925" y="828.6582"/><rect fill="#F8F8F8" height="2" style="stroke:#000000;stroke-width:2;" width="4" x="1047.2925" y="832.6582"/><text fill="#000000" font-family="'Liberation Sans'" font-size="13" lengthAdjust="spacing" textLength="162.5825" x="881.71" y="853.8521">ClaimsContext State Engine</text></g><!--entity JACCARD--><g class="entity" data-qualified-name="Client-Side Edge Execution Layer .Browser Runtime..Core Reactive Modules . State.JACCARD" data-source-line="40" id="ent0009"><rect fill="#F8F8F8" height="59.8975" rx="2.5" ry="2.5" style="stroke:#000000;stroke-width:2;" width="185.9453" x="875.03" y="660.2882"/><rect fill="#F8F8F8" height="10" style="stroke:#000000;stroke-width:2;" width="15" x="1040.9753" y="665.2882"/><rect fill="#F8F8F8" height="2" style="stroke:#000000;stroke-width:2;" width="4" x="1038.9753" y="667.2882"/><rect fill="#F8F8F8" height="2" style="stroke:#000000;stroke-width:2;" width="4" x="1038.9753" y="671.2882"/><text fill="#000000" font-family="'Liberation Sans'" font-size="13" lengthAdjust="spacing" textLength="145.9453" x="890.03" y="692.4821">Jaccard Similarity Engine</text><text fill="#000000" font-family="'Liberation Sans'" font-size="13" lengthAdjust="spacing" textLength="124.2871" x="890.03" y="707.4308">(Threshold J &gt;= 0.75)</text></g><!--entity CONSENSUS--><g class="entity" data-qualified-name="Client-Side Edge Execution Layer .Browser Runtime..Core Reactive Modules . State.CONSENSUS" data-source-line="41" id="ent0010"><rect fill="#F8F8F8" height="59.8975" rx="2.5" ry="2.5" style="stroke:#000000;stroke-width:2;" width="207.6606" x="760.17" y="949.0882"/><rect fill="#F8F8F8" height="10" style="stroke:#000000;stroke-width:2;" width="15" x="947.8306" y="954.0882"/><rect fill="#F8F8F8" height="2" style="stroke:#000000;stroke-width:2;" width="4" x="945.8306" y="956.0882"/><rect fill="#F8F8F8" height="2" style="stroke:#000000;stroke-width:2;" width="4" x="945.8306" y="960.0882"/><text fill="#000000" font-family="'Liberation Sans'" font-size="13" lengthAdjust="spacing" textLength="167.6606" x="775.17" y="981.2821">Weighted Consensus Engine</text><text fill="#000000" font-family="'Liberation Sans'" font-size="13" lengthAdjust="spacing" textLength="165.1279" x="775.17" y="996.2308">(C = 0.40A + 0.30R + 0.30S)</text></g><!--entity RASTER--><g class="entity" data-qualified-name="Client-Side Edge Execution Layer .Browser Runtime..Core Reactive Modules . State.RASTER" data-source-line="42" id="ent0011"><rect fill="#F8F8F8" height="59.8975" rx="2.5" ry="2.5" style="stroke:#000000;stroke-width:2;" width="272.3115" x="1021.84" y="949.0882"/><rect fill="#F8F8F8" height="10" style="stroke:#000000;stroke-width:2;" width="15" x="1274.1515" y="954.0882"/><rect fill="#F8F8F8" height="2" style="stroke:#000000;stroke-width:2;" width="4" x="1272.1515" y="956.0882"/><rect fill="#F8F8F8" height="2" style="stroke:#000000;stroke-width:2;" width="4" x="1272.1515" y="960.0882"/><text fill="#000000" font-family="'Liberation Sans'" font-size="13" lengthAdjust="spacing" textLength="176.2554" x="1036.84" y="981.2821">html-to-image DOM Rasterizer</text><text fill="#000000" font-family="'Liberation Sans'" font-size="13" lengthAdjust="spacing" textLength="232.3115" x="1036.84" y="996.2308">(SVG foreignObject -&gt; 1080x1080 PNG)</text></g><!--entity RULES--><g class="entity" data-qualified-name="Serverless Cloud BaaS Infrastructure .Zero-Cost Tier..RULES" data-source-line="55" id="ent0018"><rect fill="#F8F8F8" height="59.8975" rx="2.5" ry="2.5" style="stroke:#000000;stroke-width:2;" width="263.9517" x="279.02" y="949.0882"/><rect fill="#F8F8F8" height="10" style="stroke:#000000;stroke-width:2;" width="15" x="522.9717" y="954.0882"/><rect fill="#F8F8F8" height="2" style="stroke:#000000;stroke-width:2;" width="4" x="520.9717" y="956.0882"/><rect fill="#F8F8F8" height="2" style="stroke:#000000;stroke-width:2;" width="4" x="520.9717" y="960.0882"/><text fill="#000000" font-family="'Liberation Sans'" font-size="13" lengthAdjust="spacing" textLength="193.6353" x="294.02" y="981.2821">Declarative Security Rules Kernel</text><text fill="#000000" font-family="'Liberation Sans'" font-size="13" lengthAdjust="spacing" textLength="223.9517" x="294.02" y="996.2308">(firestore.rules: RBAC, Anti-Sybil Lock)</text></g><!--entity AUTH--><g class="entity" data-qualified-name="Serverless Cloud BaaS Infrastructure .Zero-Cost Tier..AUTH" data-source-line="56" id="ent0019"><rect fill="#F8F8F8" height="59.8975" rx="2.5" ry="2.5" style="stroke:#000000;stroke-width:2;" width="280.5825" x="121.71" y="814.1882"/><rect fill="#F8F8F8" height="10" style="stroke:#000000;stroke-width:2;" width="15" x="382.2925" y="819.1882"/><rect fill="#F8F8F8" height="2" style="stroke:#000000;stroke-width:2;" width="4" x="380.2925" y="821.1882"/><rect fill="#F8F8F8" height="2" style="stroke:#000000;stroke-width:2;" width="4" x="380.2925" y="825.1882"/><text fill="#000000" font-family="'Liberation Sans'" font-size="13" lengthAdjust="spacing" textLength="80.9326" x="136.71" y="846.3821">Firebase Auth</text><text fill="#000000" font-family="'Liberation Sans'" font-size="13" lengthAdjust="spacing" textLength="240.5825" x="136.71" y="861.3308">(RS256 JWT, Google OAuth, Email/Pass)</text></g><!--entity COL_CLAIMS--><g class="entity" data-qualified-name="Serverless Cloud BaaS Infrastructure .Zero-Cost Tier..FS.COL_CLAIMS" data-source-line="50" id="ent0015"><path d="M74.07,1150.9882 L115.07,1150.9882 A3.75,3.75 0 0 1 117.57,1153.4882 L124.57,1171.9882 L299.9225,1171.9882 A2.5,2.5 0 0 1 302.4225,1174.4882 L302.4225,1216.3857 A2.5,2.5 0 0 1 299.9225,1218.8857 L74.07,1218.8857 A2.5,2.5 0 0 1 71.57,1216.3857 L71.57,1153.4882 A2.5,2.5 0 0 1 74.07,1150.9882" fill="#F1F1F1" style="stroke:#181818;stroke-width:0.5;"/><line style="stroke:#181818;stroke-width:0.5;" x1="71.57" x2="124.57" y1="1171.9882" y2="1171.9882"/><text fill="#000000" font-family="'Liberation Sans'" font-size="13" lengthAdjust="spacing" textLength="101.1436" x="81.57" y="1191.1821">/claims Collection</text><text fill="#000000" font-family="'Liberation Sans'" font-size="13" lengthAdjust="spacing" textLength="200.8525" x="81.57" y="1206.1308">(Claim text, base64 image, verdict)</text></g><!--entity COL_USERS--><g class="entity" data-qualified-name="Serverless Cloud BaaS Infrastructure .Zero-Cost Tier..FS.COL_USERS" data-source-line="51" id="ent0016"><path d="M340.02,1150.9882 L381.02,1150.9882 A3.75,3.75 0 0 1 383.52,1153.4882 L390.52,1171.9882 L523.9717,1171.9882 A2.5,2.5 0 0 1 526.4717,1174.4882 L526.4717,1216.3857 A2.5,2.5 0 0 1 523.9717,1218.8857 L340.02,1218.8857 A2.5,2.5 0 0 1 337.52,1216.3857 L337.52,1153.4882 A2.5,2.5 0 0 1 340.02,1150.9882" fill="#F1F1F1" style="stroke:#181818;stroke-width:0.5;"/><line style="stroke:#181818;stroke-width:0.5;" x1="337.52" x2="390.52" y1="1171.9882" y2="1171.9882"/><text fill="#000000" font-family="'Liberation Sans'" font-size="13" lengthAdjust="spacing" textLength="96.0972" x="347.52" y="1191.1821">/users Collection</text><text fill="#000000" font-family="'Liberation Sans'" font-size="13" lengthAdjust="spacing" textLength="158.9517" x="347.52" y="1206.1308">(Profiles, reputation scores)</text></g><!--entity COL_NOTIFS--><g class="entity" data-qualified-name="Serverless Cloud BaaS Infrastructure .Zero-Cost Tier..FS.COL_NOTIFS" data-source-line="52" id="ent0017"><path d="M78.05,1293.8782 L119.05,1293.8782 A3.75,3.75 0 0 1 121.55,1296.3782 L128.55,1314.8782 L295.9553,1314.8782 A2.5,2.5 0 0 1 298.4553,1317.3782 L298.4553,1359.2757 A2.5,2.5 0 0 1 295.9553,1361.7757 L78.05,1361.7757 A2.5,2.5 0 0 1 75.55,1359.2757 L75.55,1296.3782 A2.5,2.5 0 0 1 78.05,1293.8782" fill="#F1F1F1" style="stroke:#181818;stroke-width:0.5;"/><line style="stroke:#181818;stroke-width:0.5;" x1="75.55" x2="128.55" y1="1314.8782" y2="1314.8782"/><text fill="#000000" font-family="'Liberation Sans'" font-size="13" lengthAdjust="spacing" textLength="132.958" x="85.55" y="1334.0721">/notifications Collection</text><text fill="#000000" font-family="'Liberation Sans'" font-size="13" lengthAdjust="spacing" textLength="192.9053" x="85.55" y="1349.0208">(Verifier alerts, consensus toasts)</text></g><!--entity WhatsApp Group Re-Forward--><g class="entity" data-qualified-name="WhatsApp Group Re-Forward" data-source-line="75" id="ent0033"><rect fill="#F8F8F8" height="44.9487" rx="2.5" ry="2.5" style="stroke:#000000;stroke-width:2;" width="211.9517" x="1052.02" y="1305.3582"/><rect fill="#F8F8F8" height="10" style="stroke:#000000;stroke-width:2;" width="15" x="1243.9717" y="1310.3582"/><rect fill="#F8F8F8" height="2" style="stroke:#000000;stroke-width:2;" width="4" x="1241.9717" y="1312.3582"/><rect fill="#F8F8F8" height="2" style="stroke:#000000;stroke-width:2;" width="4" x="1241.9717" y="1316.3582"/><text fill="#000000" font-family="'Liberation Sans'" font-size="13" lengthAdjust="spacing" textLength="171.9517" x="1067.02" y="1337.5521">WhatsApp Group Re-Forward</text></g><!--link UI_IN to NLP--><g class="link" data-entity-1="ent0002" data-entity-2="ent0004" data-link-type="dependency" data-source-line="59" id="lnk20"><path d="M867.76,140.9682 C854.51,155.4182 840.44,173.9482 833,193.5982 C795.88,291.6382 787.58,338.0382 839,429.3982 C856.56,460.5982 883.3728,483.2903 910.5828,501.1903" fill="none" id="UI_IN-to-NLP" style="stroke:#000000;stroke-width:2.2;"/><polygon fill="#000000" points="914.76,503.9382,909.4394,495.6502,910.5828,501.1903,905.0427,502.3337,914.76,503.9382" style="stroke:#000000;stroke-width:2.2;stroke-linejoin:miter;stroke-miterlimit:10;"/><text fill="#000000" font-family="'Liberation Sans'" font-size="12" font-weight="700" lengthAdjust="spacing" textLength="128.6953" x="805.42" y="336.7541">Raw Plaintext Forward</text></g><!--link UI_IN to COMPRESS--><g class="link" data-entity-1="ent0002" data-entity-2="ent0005" data-link-type="dependency" data-source-line="60" id="lnk21"><path d="M913.08,140.9382 C926,167.8382 942.8947,202.9714 955.8047,229.8414" fill="none" id="UI_IN-to-COMPRESS" style="stroke:#000000;stroke-width:2.2;"/><polygon fill="#000000" points="957.97,234.3482,957.6778,224.5037,955.8047,229.8414,950.4669,227.9683,957.97,234.3482" style="stroke:#000000;stroke-width:2.2;stroke-linejoin:miter;stroke-miterlimit:10;"/><text fill="#000000" font-family="'Liberation Sans'" font-size="12" font-weight="700" lengthAdjust="spacing" textLength="143.373" x="934.31" y="182.8541">Screenshot File (&lt;= 5MB)</text></g><!--link COMPRESS to OCR--><g class="link" data-entity-1="ent0005" data-entity-2="ent0006" data-link-type="dependency" data-source-line="61" id="lnk22"><path d="M969.15,294.7082 C966.98,316.8682 964.4955,342.2319 962.3355,364.3719" fill="none" id="COMPRESS-to-OCR" style="stroke:#000000;stroke-width:2.2;"/><polygon fill="#000000" points="961.85,369.3482,966.705,360.7792,962.3355,364.3719,958.7428,360.0024,961.85,369.3482" style="stroke:#000000;stroke-width:2.2;stroke-linejoin:miter;stroke-miterlimit:10;"/><text fill="#000000" font-family="'Liberation Sans'" font-size="12" font-weight="700" lengthAdjust="spacing" textLength="154.7109" x="966.89" y="336.7541">Downscaled Canvas Buffer</text></g><!--link OCR to NLP--><g class="link" data-entity-1="ent0006" data-entity-2="ent0004" data-link-type="dependency" data-source-line="62" id="lnk23"><path d="M960.98,429.6082 C962.48,451.7682 964.192,477.1197 965.692,499.2597" fill="none" id="OCR-to-NLP" style="stroke:#000000;stroke-width:2.2;"/><polygon fill="#000000" points="966.03,504.2482,969.4125,494.9984,965.692,499.2597,961.4308,495.5392,966.03,504.2482" style="stroke:#000000;stroke-width:2.2;stroke-linejoin:miter;stroke-miterlimit:10;"/><text fill="#000000" font-family="'Liberation Sans'" font-size="12" font-weight="700" lengthAdjust="spacing" textLength="127.3711" x="964.77" y="471.6541">Extracted Text Strings</text></g><!--link NLP to JACCARD--><g class="link" data-entity-1="ent0004" data-entity-2="ent0009" data-link-type="dependency" data-source-line="64" id="lnk24"><path d="M968,564.6482 C968,592.0382 968,627.6882 968,655.0382" fill="none" id="NLP-to-JACCARD" style="stroke:#000000;stroke-width:2.2;"/><polygon fill="#000000" points="968,660.0382,972,651.0382,968,655.0382,964,651.0382,968,660.0382" style="stroke:#000000;stroke-width:2.2;stroke-linejoin:miter;stroke-miterlimit:10;"/><text fill="#000000" font-family="'Liberation Sans'" font-size="12" font-weight="700" lengthAdjust="spacing" textLength="114.0352" x="969" y="608.5441">Inverted Token Sets</text></g><!--link JACCARD to CCTX--><g class="link" data-entity-1="ent0009" data-entity-2="ent0008" data-link-type="dependency" data-source-line="65" id="lnk25"><path d="M968,720.5282 C968,750.0082 968,789.8082 968,816.3182" fill="none" id="JACCARD-to-CCTX" style="stroke:#000000;stroke-width:2.2;"/><polygon fill="#000000" points="968,821.3182,972,812.3182,968,816.3182,964,812.3182,968,821.3182" style="stroke:#000000;stroke-width:2.2;stroke-linejoin:miter;stroke-miterlimit:10;"/><text fill="#000000" font-family="'Liberation Sans'" font-size="12" font-weight="700" lengthAdjust="spacing" textLength="178.6934" x="969" y="762.4441">Duplicate Match / Unique Claim</text></g><!--link CCTX to RULES--><g class="link" data-entity-1="ent0008" data-entity-2="ent0018" data-link-type="dependency" data-source-line="67" id="lnk26"><path d="M861.6333,853.1201 C781.2833,860.9001 671.8,875.5982 575,904.0882 C537.4,915.1582 501.7284,930.9148 470.5684,946.3848" fill="none" id="CCTX-RULES" style="stroke:#000000;stroke-width:2.2;"/><polygon fill="#000000" points="866.61,852.6382,857.2664,849.5242,861.6333,853.1201,858.0374,857.487,866.61,852.6382" style="stroke:#000000;stroke-width:2.2;stroke-linejoin:miter;stroke-miterlimit:10;"/><polygon fill="#000000" points="466.09,948.6082,475.9299,948.1889,470.5684,946.3848,472.3725,941.0233,466.09,948.6082" style="stroke:#000000;stroke-width:2.2;stroke-linejoin:miter;stroke-miterlimit:10;"/><text fill="#000000" font-family="'Liberation Sans'" font-size="12" font-weight="700" lengthAdjust="spacing" textLength="183.3691" x="576" y="916.3441">Encrypted HTTP/2 &amp; WebSocket</text></g><!--link RULES to FS--><g class="link" data-entity-1="ent0018" data-entity-2="ent0014" data-link-type="dependency" data-source-line="68" id="lnk27"><path d="M456.9625,1012.2229 C478.4425,1026.8529 501.14,1041.6282 526,1055.9882 C532.89,1059.9582 537.28,1057.5882 542,1063.9882 C543.9756,1066.6626 545.7839,1069.4619 547.4378,1072.3606 C548.2648,1073.81 549.0533,1075.2842 549.8048,1076.7801 C550.1805,1077.5281 550.547,1078.2814 550.9045,1079.0398 C550.9939,1079.2294 548.9785,1074.8836 549.0667,1075.0739" fill="none" id="RULES-FS" style="stroke:#000000;stroke-width:2.2;"/><polygon fill="#000000" points="452.83,1009.4082,458.0168,1017.7806,456.9625,1012.2229,462.5203,1011.1686,452.83,1009.4082" style="stroke:#000000;stroke-width:2.2;stroke-linejoin:miter;stroke-miterlimit:10;"/><polygon fill="#000000" points="551.1709,1079.6095,551.0118,1069.762,549.0667,1075.0739,543.7548,1073.1287,551.1709,1079.6095" style="stroke:#000000;stroke-width:2.2;stroke-linejoin:miter;stroke-miterlimit:10;"/><text fill="#000000" font-family="'Liberation Sans'" font-size="12" font-weight="700" lengthAdjust="spacing" textLength="173.373" x="527" y="1053.2441">Atomic Read / Write Invariants</text></g><!--link AUTH to RULES--><g class="link" data-entity-1="ent0019" data-entity-2="ent0018" data-link-type="dependency" data-source-line="70" id="lnk28"><path d="M253.05,874.4382 C250.41,889.0382 250.22,906.2582 259,919.0882 C267.4,931.3482 274.4603,938.4729 287.1903,946.1629" fill="none" id="AUTH-to-RULES" style="stroke:#000000;stroke-width:2.2;stroke-dasharray:7,7;"/><polygon fill="#000000" points="291.47,948.7482,285.8347,940.6709,287.1903,946.1629,281.6982,947.5184,291.47,948.7482" style="stroke:#000000;stroke-width:2.2;stroke-linejoin:miter;stroke-miterlimit:10;"/><text fill="#000000" font-family="'Liberation Sans'" font-size="12" font-weight="700" lengthAdjust="spacing" textLength="247.3594" x="260" y="916.3441">Authenticated Token Claims (UID, isAdmin)</text></g><!--link CCTX to CONSENSUS--><g class="link" data-entity-1="ent0008" data-entity-2="ent0010" data-link-type="dependency" data-source-line="71" id="lnk29"><path d="M866.46,864.2882 C825.53,874.2582 785.1,887.7882 773,904.0882 C760.38,921.0882 768.8003,933.8119 788.2803,946.0919" fill="none" id="CCTX-to-CONSENSUS" style="stroke:#000000;stroke-width:2.2;"/><polygon fill="#000000" points="792.51,948.7582,787.0296,940.575,788.2803,946.0919,782.7634,947.3425,792.51,948.7582" style="stroke:#000000;stroke-width:2.2;stroke-linejoin:miter;stroke-miterlimit:10;"/><text fill="#000000" font-family="'Liberation Sans'" font-size="12" font-weight="700" lengthAdjust="spacing" textLength="167.3555" x="774" y="916.3441">3-Verifier Quorum Resolution</text></g><!--link CONSENSUS to CCTX--><g class="link" data-entity-1="ent0010" data-entity-2="ent0008" data-link-type="dependency" data-source-line="72" id="lnk30"><path d="M915.88,948.6482 C927.09,940.3082 937.97,930.3682 946,919.0882 C957.03,903.5882 961.7202,887.452 964.4902,871.772" fill="none" id="CONSENSUS-to-CCTX" style="stroke:#000000;stroke-width:2.2;"/><polygon fill="#000000" points="965.36,866.8482,959.8553,875.0152,964.4902,871.772,967.7333,876.4069,965.36,866.8482" style="stroke:#000000;stroke-width:2.2;stroke-linejoin:miter;stroke-miterlimit:10;"/><text fill="#000000" font-family="'Liberation Sans'" font-size="12" font-weight="700" lengthAdjust="spacing" textLength="131.3789" x="955.24" y="916.3441">Verified Dossier Status</text></g><!--link CCTX to RASTER--><g class="link" data-entity-1="ent0008" data-entity-2="ent0011" data-link-type="dependency" data-source-line="73" id="lnk31"><path d="M1028.83,867.0382 C1050.85,876.5582 1075.16,889.0082 1095,904.0882 C1111.38,916.5382 1123.4248,929.9449 1134.7148,944.7249" fill="none" id="CCTX-to-RASTER" style="stroke:#000000;stroke-width:2.2;"/><polygon fill="#000000" points="1137.75,948.6982,1135.4654,939.118,1134.7148,944.7249,1129.108,943.9743,1137.75,948.6982" style="stroke:#000000;stroke-width:2.2;stroke-linejoin:miter;stroke-miterlimit:10;"/><text fill="#000000" font-family="'Liberation Sans'" font-size="12" font-weight="700" lengthAdjust="spacing" textLength="195.3809" x="1111.96" y="916.3441">Mount Verified &lt;FactCheckCard /&gt;</text></g><!--link RASTER to UI_OUT--><g class="link" data-entity-1="ent0011" data-entity-2="ent0012" data-link-type="dependency" data-source-line="74" id="lnk32"><path d="M1158,1009.2482 C1158,1050.5382 1158,1120.0582 1158,1156.9782" fill="none" id="RASTER-to-UI_OUT" style="stroke:#000000;stroke-width:2.2;"/><polygon fill="#000000" points="1158,1161.9782,1162,1152.9782,1158,1156.9782,1154,1152.9782,1158,1161.9782" style="stroke:#000000;stroke-width:2.2;stroke-linejoin:miter;stroke-miterlimit:10;"/><text fill="#000000" font-family="'Liberation Sans'" font-size="12" font-weight="700" lengthAdjust="spacing" textLength="171.334" x="1159" y="1053.2441">Download High-DPI PNG Card</text></g><!--link UI_OUT to WhatsApp Group Re-Forward--><g class="link" data-entity-1="ent0012" data-entity-2="ent0033" data-link-type="dependency" data-source-line="75" id="lnk34"><path d="M1158,1207.6382 C1158,1234.0382 1158,1273.3482 1158,1299.8682" fill="none" id="UI_OUT-to-WhatsApp Group Re-Forward" style="stroke:#000000;stroke-width:2.2;"/><polygon fill="#000000" points="1158,1304.8682,1162,1295.8682,1158,1299.8682,1154,1295.8682,1158,1304.8682" style="stroke:#000000;stroke-width:2.2;stroke-linejoin:miter;stroke-miterlimit:10;"/><text fill="#000000" font-family="'Liberation Sans'" font-size="12" font-weight="700" lengthAdjust="spacing" textLength="221.3438" x="1159" y="1261.1341">Counter-Misinformation Dissemination</text></g><?plantuml-src VLLhJniv5Fq-l-AAbLQWJI1BIykYjj9aaa1eNiqaPRLiLJapJk8oOsTjJu5TzR_lyNZo8AL5Y0JVu_i-n-PEo1NJB2TZ7pEElreajiYpm6mikP8gMMgLSxAwu3kMbCzPaTcEadR0O3xeYHdNp0ebAMRI73oFZSM_d7v_yGDZcSTCPUcEtGgRyUtLysTDsuixvXbBxXPQ5JADLAOqtI-5tIqXr5hTUzCi0tRVD5cAv4voO-Zq-7JVkCteUTEp6OqGXIruK-cKw-SZFu7iPj1u1hHNu2-TycStOgJobP9Ssf_5t0FzAEeMzbtSyyuVdN0tRejPDcFcfwK-nVmewWRrNT16vsNdF0ZABQ0EIz1qbgykg2tJkbLrV53yQ2pFgPklCfuZSx-VlrAK2VnNxmXjBBNJ1I_3p3Dr7mGhtrmwg42nIBd7j1zuKfGUUkoHQpfiOje6NyQ5j2BdHmVqNq1qEtLdNRdWfWHtfULwpXB-jpoSy0UBWrLXaKLBiqMzfTMAuaHpBirIsQDFn0nDkv-x0xZ2xoQTCeMHvYkj4hH9o0N5nSoK5HeV6R77VC4V70E5nNPgH9ceEoxTTuGtA40B-tXiJOtIOfM9X5dUufOdBbKS-_Y3tiYxkvhqUsSKCVaLforrBqt2ijALo96LMmdjaYdlNj2Rj_IwqQ3tJUyc6lP7utOSUrzTMLytR1YDCQQ5aBud1cUOt_4NGpTy5kBVV9OzUX-0ulgtOBSLaTASnXnNn5TEVPKM6JSe5GjW-QOLKSP4RYAmqJMzj5L1VNBHv4yFl6P9mZIsHUGYOwu_EyajKTyIFAPhUlUM6iUlptnUrs4KXUEMzt33nM9fUGgEI8D15cRh8I9txMKZfD_m-Q8nhZxZTOy6SNiGJwicBMsUkUqjsqkjOP_631FMrG3ZZvSqH_LY8OUpBvWQrT_HxutpneFxGwF1fVSw3kD9spUktABRbd1T5NBDW9ibioPShJ1RLDv-M2bjrwitd4w2Rpj4YBd-odNck1bbgaYfoLYCBPvhfAOBF1eOn-5VNAjwf42eYU2wua9QiPSEBfLQWAVU0OW7Sg0Eb3HGyOTUTUvOM9xZEdBfnDKivnW0rkRW92bdYZPdcLzPrs1tHcx8DNAnNhsaidirGjOftZJlB1hsFaUziDkFdxeii7nx7aTQpGNghH7eLbIgOHBaPRQ-fd5xlETAAYlcZbB0xxdyY17EqHToz77iIpQROXLgtd4y64wwdNXtTXnbkxSLonvN38Rck9r_pxNa6VpFrnqzrivmGUDc6DKeX33LuyUPoAYdahjgEQQzjlD_wyPGJYSix19Enl7fsIkwlfdKg1hNq5bgrCwPo4v6p5Jw44udLsv5IfsYEdOGYa48okvfX75uodMKliTsxQ3MWW3eLlAm3OXq2EquwpUFWWt6NN12SR4LddGjHSrYFkSwSEPjzFQ3TJ82rCGpNaCaJH0ugqDLb0MoAx4Q9T298vfgJR2sbdb26rpSjK9IdzbaIISqbUAVmcqnLYu8IjWRTw5igKj19lfnvJnVJIQZarF7D3wBqNfk0mygyHq73gtAHUA4B8Nh6uoLkyoWG4mYeS1rcOwFjzxTCF0abIcjS_SgHuVJRgj6meGfI7xaC_CTh-G5rr_KDrlueL2wo17QgAnyqe8jSAS15Hx4L11vt7CgMfYjUwypGFRnCjij_erxZwCbJ-vAVJbv5rH8TybBJ3NNJA7wAyXdlJNgEW4h5IceC0v-kz6gIxp_AoHThpRh4tn4BZ3NzRx0amXfp3rRd-XTy3y0?></g></svg>